<?xml version="1.0" encoding="utf-8"?>
<!-- Generator: Adobe Illustrator 16.2.1, SVG Export Plug-In . SVG Version: 6.00 Build 0)  -->
<!DOCTYPE svg PUBLIC "-//W3C//DTD SVG 1.1//EN" "http://www.w3.org/Graphics/SVG/1.1/DTD/svg11.dtd">
<svg version="1.1" id="Icons" xmlns="http://www.w3.org/2000/svg" xmlns:xlink="http://www.w3.org/1999/xlink" x="0px" y="0px"
	 width="128px" height="128px" viewBox="0 0 128 128" enable-background="new 0 0 128 128" xml:space="preserve">
<g>
	<path fill="#414F59" d="M64,8c-14.958,0-29.021,5.825-39.598,16.402C13.824,34.979,7.999,49.042,8,64
		c-0.001,14.959,5.824,29.021,16.401,39.599S49.041,120,64,120c30.877,0,55.999-25.121,56-56C119.999,33.122,94.877,8,64,8z M64,104
		c-10.685,0-20.73-4.16-28.285-11.715S24,74.686,24,64c0-10.685,4.16-20.729,11.716-28.284C43.271,28.161,53.315,24,64,24
		c22.056,0,39.999,17.944,40,40C103.999,86.056,86.056,104,64,104z"/>
	<path fill="#414F59" d="M83.393,60H68V44.605c0-2.209-1.791-4-4-4s-4,1.791-4,4V60H44.604c-2.209,0-4,1.791-4,4s1.791,4,4,4H60
		v15.396c0,2.209,1.791,4,4,4s4-1.791,4-4V68h15.393c2.209,0,4-1.791,4-4S85.602,60,83.393,60z"/>
</g>
</svg>
