<?xml version="1.0" encoding="utf-8"?>
<!-- Generator: Adobe Illustrator 16.2.1, SVG Export Plug-In . SVG Version: 6.00 Build 0)  -->
<!DOCTYPE svg PUBLIC "-//W3C//DTD SVG 1.1//EN" "http://www.w3.org/Graphics/SVG/1.1/DTD/svg11.dtd">
<svg version="1.1" id="Icons" xmlns="http://www.w3.org/2000/svg" xmlns:xlink="http://www.w3.org/1999/xlink" x="0px" y="0px"
	 width="128px" height="128px" viewBox="0 0 128 128" enable-background="new 0 0 128 128" xml:space="preserve">
<path fill="#414F59" d="M103.599,24.402c-21.87-21.87-57.327-21.869-79.196,0s-21.871,57.326,0,79.196
	c21.869,21.87,57.326,21.869,79.195,0S125.469,46.272,103.599,24.402z M86.627,68.001H68v18.627c0,2.209-1.791,4-4,4s-4-1.791-4-4
	V68.001H41.373c-2.209,0-4-1.791-4-4s1.791-4,4-4H60V41.373c0-2.209,1.791-4,4-4s4,1.791,4,4v18.628h18.627c2.209,0,4,1.791,4,4
	S88.836,68.001,86.627,68.001z"/>
</svg>
