<?xml version="1.0" encoding="utf-8"?>
<!-- Generator: Adobe Illustrator 16.2.1, SVG Export Plug-In . SVG Version: 6.00 Build 0)  -->
<!DOCTYPE svg PUBLIC "-//W3C//DTD SVG 1.1//EN" "http://www.w3.org/Graphics/SVG/1.1/DTD/svg11.dtd">
<svg version="1.1" id="Icons" xmlns="http://www.w3.org/2000/svg" xmlns:xlink="http://www.w3.org/1999/xlink" x="0px" y="0px"
	 width="128px" height="128px" viewBox="0 0 128 128" enable-background="new 0 0 128 128" xml:space="preserve">
<g>
	<path fill="#414F59" d="M41.092,13.902C37.582,10.856,33.012,9,28,9C16.954,9,8,17.954,8,29c0,5.012,1.856,9.582,4.902,13.091
		C18.519,29.584,28.584,19.519,41.092,13.902z"/>
	<path fill="#414F59" d="M114,65c0-27.614-22.385-50-50-50c-27.614,0-50,22.386-50,50c0,14.43,6.121,27.424,15.899,36.551
		l-4.16,8.316c-1.729,3.459-0.327,7.664,3.131,9.393c1.005,0.502,2.073,0.74,3.125,0.74c2.567,0,5.04-1.418,6.267-3.871l3.241-6.482
		c6.764,3.416,14.403,5.352,22.498,5.352c8.096,0,15.734-1.936,22.498-5.352l3.24,6.482c1.227,2.453,3.7,3.871,6.269,3.871
		c1.051,0,2.119-0.238,3.125-0.74c3.456-1.729,4.858-5.934,3.13-9.393l-4.159-8.316C107.879,92.424,114,79.43,114,65z
		 M83.578,74.789C82.877,76.189,81.465,77,79.997,77c-0.602,0-1.212-0.135-1.786-0.422l-16-8C60.855,67.9,60,66.516,60,65V41
		c0-2.209,1.791-4,4-4s4,1.791,4,4v21.527l13.789,6.895C83.765,70.41,84.565,72.812,83.578,74.789z"/>
	<path fill="#414F59" d="M100.001,9c-5.012,0-9.583,1.856-13.093,4.902c12.509,5.616,22.573,15.682,28.189,28.188
		C118.144,38.581,120,34.012,120,29C120,17.954,111.046,9,100.001,9z"/>
</g>
</svg>
