<?xml version="1.0" encoding="utf-8"?>
<!-- Generator: Adobe Illustrator 16.2.1, SVG Export Plug-In . SVG Version: 6.00 Build 0)  -->
<!DOCTYPE svg PUBLIC "-//W3C//DTD SVG 1.1//EN" "http://www.w3.org/Graphics/SVG/1.1/DTD/svg11.dtd">
<svg version="1.1" id="Icons" xmlns="http://www.w3.org/2000/svg" xmlns:xlink="http://www.w3.org/1999/xlink" x="0px" y="0px"
	 width="128px" height="128px" viewBox="0 0 128 128" enable-background="new 0 0 128 128" xml:space="preserve">
<g>
	<path fill="#414F59" d="M20,43c-4.4,0-8,3.6-8,8v32c0,4.4,3.6,8,8,8s8-3.6,8-8V51C28,46.6,24.4,43,20,43z"/>
	<path fill="#414F59" d="M32,91c0,4.4,3.6,8,8,8v16c0,4.4,3.6,8,8,8s8-3.6,8-8V99h16v16c0,4.4,3.6,8,8,8s8-3.6,8-8V99
		c4.4,0,8-3.6,8-8V43H32V91z"/>
	<path fill="#414F59" d="M85.295,15.121l5.389-10.78c0.74-1.482,0.14-3.284-1.342-4.025c-1.479-0.74-3.284-0.14-4.025,1.342
		l-4.928,9.857C75.595,8.65,69.99,7,64,7s-11.595,1.65-16.389,4.516l-4.928-9.857c-0.74-1.483-2.545-2.081-4.025-1.342
		c-1.481,0.741-2.082,2.543-1.342,4.025l5.389,10.78C36.139,20.981,32,29.506,32,39h1.088h61.824H96
		C96,29.506,91.861,20.981,85.295,15.121z M52,27.5c-2.209,0-4-1.791-4-4s1.791-4,4-4s4,1.791,4,4S54.209,27.5,52,27.5z M76,27.5
		c-2.209,0-4-1.791-4-4s1.791-4,4-4s4,1.791,4,4S78.209,27.5,76,27.5z"/>
	<path fill="#414F59" d="M108,43c-4.4,0-8,3.6-8,8v32c0,4.4,3.6,8,8,8s8-3.6,8-8V51C116,46.6,112.4,43,108,43z"/>
</g>
</svg>
