<?xml version="1.0" encoding="utf-8"?>
<!-- Generator: Adobe Illustrator 16.2.1, SVG Export Plug-In . SVG Version: 6.00 Build 0)  -->
<!DOCTYPE svg PUBLIC "-//W3C//DTD SVG 1.1//EN" "http://www.w3.org/Graphics/SVG/1.1/DTD/svg11.dtd">
<svg version="1.1" id="Icons" xmlns="http://www.w3.org/2000/svg" xmlns:xlink="http://www.w3.org/1999/xlink" x="0px" y="0px"
	 width="128px" height="128px" viewBox="0 0 128 128" enable-background="new 0 0 128 128" xml:space="preserve">
<g>
	<path fill="#414F59" d="M92,43c7.732,0,14-6.268,14-14v-7c0-7.732-6.268-14-14-14s-14,6.268-14,14v7C78,36.732,84.268,43,92,43z"/>
	<path fill="#414F59" d="M111.975,58.025C111.647,57.697,103.814,50,92,50s-19.647,7.697-19.975,8.025
		C71.369,58.682,71,59.572,71,60.5v28c0,1.326,0.748,2.538,1.935,3.131l5.36,2.68l3.24,22.684C81.782,118.719,83.259,120,85,120h14
		c1.741,0,3.218-1.281,3.465-3.006l3.24-22.684l5.36-2.68C112.252,91.038,113,89.826,113,88.5v-28
		C113,59.572,112.631,58.682,111.975,58.025z"/>
	<path fill="#414F59" d="M40.682,40.588c-1.023-1.024-1.861-0.677-1.861,0.771v14.216H15v16.848h23.82v14.217
		c0,1.447,0.838,1.795,1.861,0.771l21.551-21.551c1.023-1.024,1.023-2.698,0-3.723L40.682,40.588z"/>
</g>
</svg>
