<?xml version="1.0" encoding="utf-8"?>
<!-- Generator: Adobe Illustrator 16.2.1, SVG Export Plug-In . SVG Version: 6.00 Build 0)  -->
<!DOCTYPE svg PUBLIC "-//W3C//DTD SVG 1.1//EN" "http://www.w3.org/Graphics/SVG/1.1/DTD/svg11.dtd">
<svg version="1.1" id="Icons" xmlns="http://www.w3.org/2000/svg" xmlns:xlink="http://www.w3.org/1999/xlink" x="0px" y="0px"
	 width="128px" height="128px" viewBox="0 0 128 128" enable-background="new 0 0 128 128" xml:space="preserve">
<path fill="#414F59" d="M128,49.186c0,3.523,0.008,3.988-2.828,6.824L72,103.982c-1.556,1.555-4.574,2.39-6.709,1.856L48,100.813
	v-8.007l17.291,5.037c2.135,0.533,5.153-0.303,6.709-1.857l53.172-47.972C126.727,46.46,128,46.987,128,49.186z M14,82.904
	l-6.04-1.76L7.942,66.408l54.521,15.444c2.134,0.534,5.153-0.302,6.709-1.856l57.912-53.065c1.555-1.555,1.082-3.263-1.053-3.796
	l-58.15-10.974c-2.135-0.533-5.154,0.302-6.709,1.857L0.917,61.169C0.292,61.792-0.005,62.441,0,63.028v19.996
	c0,2.199,1.746,4.435,3.88,4.969L14,90.933v23.838l10.962-4.741L40,120V83.305L14,76V82.904z"/>
</svg>
