<?xml version="1.0" encoding="utf-8"?>
<!-- Generator: Adobe Illustrator 16.2.1, SVG Export Plug-In . SVG Version: 6.00 Build 0)  -->
<!DOCTYPE svg PUBLIC "-//W3C//DTD SVG 1.1//EN" "http://www.w3.org/Graphics/SVG/1.1/DTD/svg11.dtd">
<svg version="1.1" id="Icons" xmlns="http://www.w3.org/2000/svg" xmlns:xlink="http://www.w3.org/1999/xlink" x="0px" y="0px"
	 width="128px" height="128px" viewBox="0 0 128 128" enable-background="new 0 0 128 128" xml:space="preserve">
<path fill="#414F59" d="M64,16C28.654,16,0,37.491,0,64c0,14.213,8.243,26.978,21.331,35.767L8.001,120l29.997-12.142
	C45.945,110.513,54.738,112,64,112c35.346,0,64-21.49,64-48C128,37.491,99.346,16,64,16z M32,72c-4.418,0-8-3.582-8-8s3.582-8,8-8
	s8,3.582,8,8S36.418,72,32,72z M64,72c-4.418,0-8-3.582-8-8s3.582-8,8-8s8,3.582,8,8S68.418,72,64,72z M96,72c-4.418,0-8-3.582-8-8
	s3.582-8,8-8s8,3.582,8,8S100.418,72,96,72z"/>
</svg>
