<?xml version="1.0" encoding="utf-8"?>
<!-- Generator: Adobe Illustrator 16.2.1, SVG Export Plug-In . SVG Version: 6.00 Build 0)  -->
<!DOCTYPE svg PUBLIC "-//W3C//DTD SVG 1.1//EN" "http://www.w3.org/Graphics/SVG/1.1/DTD/svg11.dtd">
<svg version="1.1" id="Icons" xmlns="http://www.w3.org/2000/svg" xmlns:xlink="http://www.w3.org/1999/xlink" x="0px" y="0px"
	 width="128px" height="128px" viewBox="0 0 128 128" enable-background="new 0 0 128 128" xml:space="preserve">
<g>
	<path fill="#414F59" d="M31.725,77.16C37.955,78.988,44.807,80,52,80c28.719,0,52-16.119,52-36c0-19.882-23.281-36-52-36
		S0,24.118,0,44c0,9.527,5.355,18.184,14.084,24.623L0,90L31.725,77.16z"/>
	<path fill="#414F59" d="M119.158,104.804C124.686,99.659,128,93.121,128,86c0-11.303-8.337-21.141-20.647-26.256
		c-3.102,5.899-7.964,11.254-14.42,15.725C81.899,83.106,67.363,87.312,52,87.312c-1.328,0-2.646-0.043-3.959-0.104
		C48.887,103.215,66.449,116,88,116c7.812,0,15.097-1.686,21.256-4.591L128,120L119.158,104.804z"/>
</g>
</svg>
