<?xml version="1.0" encoding="utf-8"?>
<!-- Generator: Adobe Illustrator 16.2.1, SVG Export Plug-In . SVG Version: 6.00 Build 0)  -->
<!DOCTYPE svg PUBLIC "-//W3C//DTD SVG 1.1//EN" "http://www.w3.org/Graphics/SVG/1.1/DTD/svg11.dtd">
<svg version="1.1" id="Icons" xmlns="http://www.w3.org/2000/svg" xmlns:xlink="http://www.w3.org/1999/xlink" x="0px" y="0px"
	 width="128px" height="128px" viewBox="0 0 128 128" enable-background="new 0 0 128 128" xml:space="preserve">
<g>
	<path fill="#414F59" d="M108,32H96v4c0,2.2-1.8,4-4,4s-4-1.8-4-4v-4H40v4c0,2.2-1.8,4-4,4s-4-1.8-4-4v-4H20c-2.2,0-4,1.8-4,4v72
		c0,2.2,1.8,4,4,4h88c2.2,0,4-1.8,4-4V36C112,33.8,110.2,32,108,32z M80,76H68v12c0,2.209-1.791,4-4,4s-4-1.791-4-4V76H48
		c-2.209,0-4-1.791-4-4s1.791-4,4-4h12V56c0-2.209,1.791-4,4-4s4,1.791,4,4v12h12c2.209,0,4,1.791,4,4S82.209,76,80,76z"/>
	<path fill="#414F59" d="M108,8H20c-2.2,0-4,1.8-4,4v12h16v-4c0-2.2,1.8-4,4-4s4,1.8,4,4v4h48v-4c0-2.2,1.8-4,4-4s4,1.8,4,4v4h16V12
		C112,9.8,110.2,8,108,8z"/>
</g>
</svg>
