<?xml version="1.0" encoding="utf-8"?>
<!-- Generator: Adobe Illustrator 16.2.1, SVG Export Plug-In . SVG Version: 6.00 Build 0)  -->
<!DOCTYPE svg PUBLIC "-//W3C//DTD SVG 1.1//EN" "http://www.w3.org/Graphics/SVG/1.1/DTD/svg11.dtd">
<svg version="1.1" id="Icons" xmlns="http://www.w3.org/2000/svg" xmlns:xlink="http://www.w3.org/1999/xlink" x="0px" y="0px"
	 width="128px" height="128px" viewBox="0 0 128 128" enable-background="new 0 0 128 128" xml:space="preserve">
<path fill="#414F59" d="M112,32H92.944l-5.789-11.577C85.801,17.712,83.03,16,80,16H48c-3.03,0-5.801,1.712-7.155,4.423L35.056,32
	H16c-4.418,0-8,3.582-8,8v64c0,4.418,3.582,8,8,8h96c4.418,0,8-3.582,8-8V40C120,35.582,116.418,32,112,32z M64,96
	c-13.255,0-24-10.744-24-24c0-13.255,10.745-24,24-24c13.256,0,24,10.745,24,24C88,85.256,77.256,96,64,96z"/>
</svg>
