<?xml version="1.0" encoding="utf-8"?>
<!-- Generator: Adobe Illustrator 16.2.1, SVG Export Plug-In . SVG Version: 6.00 Build 0)  -->
<!DOCTYPE svg PUBLIC "-//W3C//DTD SVG 1.1//EN" "http://www.w3.org/Graphics/SVG/1.1/DTD/svg11.dtd">
<svg version="1.1" id="Icons" xmlns="http://www.w3.org/2000/svg" xmlns:xlink="http://www.w3.org/1999/xlink" x="0px" y="0px"
	 width="128px" height="128px" viewBox="0 0 128 128" enable-background="new 0 0 128 128" xml:space="preserve">
<path fill="#414F59" d="M64.001,7.999C33.072,7.999,8,33.072,8,64c0,30.927,25.072,56,56.001,56c30.929,0,56-25.073,56-56
	C120.001,33.072,94.93,7.999,64.001,7.999z M90.828,50.828l-31.999,32c-0.757,0.756-1.777,1.171-2.829,1.171
	c-0.213,0-0.427-0.017-0.641-0.052c-1.269-0.206-2.362-1.01-2.937-2.159l-8-16c-0.988-1.976-0.187-4.379,1.789-5.367
	c1.975-0.987,4.378-0.187,5.367,1.789l5.518,11.036L85.172,45.17c1.562-1.562,4.094-1.562,5.656,0
	C92.391,46.733,92.391,49.265,90.828,50.828z"/>
</svg>
