<?xml version="1.0" encoding="utf-8"?>
<!-- Generator: Adobe Illustrator 16.2.1, SVG Export Plug-In . SVG Version: 6.00 Build 0)  -->
<!DOCTYPE svg PUBLIC "-//W3C//DTD SVG 1.1//EN" "http://www.w3.org/Graphics/SVG/1.1/DTD/svg11.dtd">
<svg version="1.1" id="Icons" xmlns="http://www.w3.org/2000/svg" xmlns:xlink="http://www.w3.org/1999/xlink" x="0px" y="0px"
	 width="128px" height="128px" viewBox="0 0 128 128" enable-background="new 0 0 128 128" xml:space="preserve">
<g>
	<path fill="#414F59" d="M64,8c-14.958,0-29.021,5.825-39.598,16.402C13.825,34.979,8,49.042,8,64
		c0,14.959,5.824,29.021,16.401,39.599C34.978,114.176,49.041,120,64,120c30.877,0,55.999-25.121,56-56
		C119.999,33.122,94.877,8,64,8z M64,104c-10.685,0-20.73-4.16-28.285-11.715S24,74.686,24,64c0-10.685,4.16-20.729,11.715-28.284
		S53.315,24,64,24c22.055,0,39.999,17.944,40,40C103.999,86.056,86.055,104,64,104z"/>
	<path fill="#414F59" d="M85.172,45.172L57.096,73.248l-5.518-11.037c-0.988-1.975-3.391-2.775-5.367-1.789
		c-1.976,0.988-2.776,3.391-1.789,5.367l8,16c0.575,1.15,1.668,1.953,2.937,2.159C55.573,83.982,55.787,84,56,84
		c1.053,0,2.072-0.416,2.828-1.172l32-32c1.562-1.562,1.562-4.094,0-5.656S86.734,43.609,85.172,45.172z"/>
</g>
</svg>
