<?xml version="1.0" encoding="utf-8"?>
<!-- Generator: Adobe Illustrator 16.2.1, SVG Export Plug-In . SVG Version: 6.00 Build 0)  -->
<!DOCTYPE svg PUBLIC "-//W3C//DTD SVG 1.1//EN" "http://www.w3.org/Graphics/SVG/1.1/DTD/svg11.dtd">
<svg version="1.1" id="Icons" xmlns="http://www.w3.org/2000/svg" xmlns:xlink="http://www.w3.org/1999/xlink" x="0px" y="0px"
	 width="128px" height="128px" viewBox="0 0 128 128" enable-background="new 0 0 128 128" xml:space="preserve">
<path fill="#414F59" d="M60.37,69.559l-6.897-13.795c-1.235-2.471-4.24-3.473-6.708-2.236c-2.47,1.235-3.471,4.238-2.236,6.708
	l10,20.001c0.719,1.438,2.085,2.441,3.671,2.699C58.466,82.979,58.734,83,59,83c1.315,0,2.59-0.52,3.536-1.465L112,31.999V20
	c0-2.199-1.8-4-4-4H20c-2.2,0-4,1.801-4,4v88c0,2.2,1.8,4,4,4h88c2.2,0,4-1.8,4-4V47.999l-12,12V100H28V28h72v1.929L60.37,69.559z"
	/>
</svg>
