<?xml version="1.0" encoding="utf-8"?>
<!-- Generator: Adobe Illustrator 16.2.1, SVG Export Plug-In . SVG Version: 6.00 Build 0)  -->
<!DOCTYPE svg PUBLIC "-//W3C//DTD SVG 1.1//EN" "http://www.w3.org/Graphics/SVG/1.1/DTD/svg11.dtd">
<svg version="1.1" id="Icons" xmlns="http://www.w3.org/2000/svg" xmlns:xlink="http://www.w3.org/1999/xlink" x="0px" y="0px"
	 width="128px" height="128px" viewBox="0 0 128 128" enable-background="new 0 0 128 128" xml:space="preserve">
<path fill="#414F59" d="M108.771,33.396l5.867-5.931c0.871-0.88,0.871-2.32,0-3.201l-9.504-9.606c-0.871-0.88-2.296-0.88-3.168,0
	l-6.121,6.187c-6.711-4.7-14.484-7.956-22.887-9.322V6.264C72.959,5.019,71.951,4,70.72,4H57.28c-1.233,0-2.24,1.019-2.24,2.264
	v5.258c-8.402,1.366-16.174,4.622-22.886,9.322l-6.122-6.187c-0.871-0.88-2.296-0.88-3.167,0l-9.504,9.606
	c-0.871,0.881-0.871,2.321,0,3.201l5.867,5.931C12.18,42.863,8,54.636,8,67.396C8,98.656,33.072,124,64,124
	c30.93,0,56-25.344,56-56.604C120,54.636,115.82,42.863,108.771,33.396z M87.576,81.788c-0.7,1.401-2.113,2.212-3.58,2.212
	c-0.602,0-1.211-0.137-1.786-0.424L62.211,71.578C60.856,70.9,60,69.516,60,68V36c0-2.209,1.791-4,4-4s4,1.791,4,4v29.527
	l17.788,10.895C87.764,77.409,88.564,79.812,87.576,81.788z"/>
</svg>
