<?xml version="1.0" encoding="utf-8"?>
<!-- Generator: Adobe Illustrator 16.2.1, SVG Export Plug-In . SVG Version: 6.00 Build 0)  -->
<!DOCTYPE svg PUBLIC "-//W3C//DTD SVG 1.1//EN" "http://www.w3.org/Graphics/SVG/1.1/DTD/svg11.dtd">
<svg version="1.1" id="Icons" xmlns="http://www.w3.org/2000/svg" xmlns:xlink="http://www.w3.org/1999/xlink" x="0px" y="0px"
	 width="128px" height="128px" viewBox="0 0 128 128" enable-background="new 0 0 128 128" xml:space="preserve">
<path fill="#414F59" d="M64,8C33.072,8,8,33.072,8,64c0,30.927,25.072,56,56,56c30.93,0,56-25.072,56-56C120,33.072,94.93,8,64,8z
	 M91.328,82.219C90.557,83.375,89.289,84,87.996,84c-0.763,0-1.533-0.217-2.215-0.672l-24-16C60.668,66.586,60,65.338,60,64V32
	c0-2.209,1.791-4,4-4s4,1.791,4,4v29.86l22.219,14.812C92.057,77.896,92.553,80.381,91.328,82.219z"/>
</svg>
