<?xml version="1.0" encoding="utf-8"?>
<!-- Generator: Adobe Illustrator 16.2.1, SVG Export Plug-In . SVG Version: 6.00 Build 0)  -->
<!DOCTYPE svg PUBLIC "-//W3C//DTD SVG 1.1//EN" "http://www.w3.org/Graphics/SVG/1.1/DTD/svg11.dtd">
<svg version="1.1" id="Icons" xmlns="http://www.w3.org/2000/svg" xmlns:xlink="http://www.w3.org/1999/xlink" x="0px" y="0px"
	 width="128px" height="128px" viewBox="0 0 128 128" enable-background="new 0 0 128 128" xml:space="preserve">
<path fill="#414F59" d="M116.963,57.031l-15.541-2.072c-0.95-3.948-2.502-7.661-4.564-11.03l9.521-12.451
	c1.065-1.393,0.935-3.361-0.307-4.601l-4.949-4.95c-0.679-0.679-1.575-1.025-2.477-1.025c-0.745,0-1.494,0.237-2.125,0.72
	l-12.45,9.521c-3.369-2.063-7.082-3.615-11.03-4.565l-2.072-15.541C70.738,9.299,69.254,8,67.5,8h-7
	c-1.754,0-3.238,1.299-3.469,3.038l-2.072,15.541c-3.948,0.95-7.661,2.502-11.03,4.565l-12.45-9.521
	c-0.631-0.482-1.38-0.72-2.125-0.72c-0.901,0-1.798,0.346-2.477,1.025l-4.949,4.95c-1.241,1.24-1.372,3.207-0.307,4.601
	l9.521,12.451c-2.062,3.369-3.614,7.082-4.564,11.03l-15.541,2.072C9.299,57.262,8,58.746,8,60.5v7c0,1.754,1.299,3.238,3.037,3.469
	l15.541,2.072c0.95,3.948,2.502,7.661,4.564,11.03l-9.521,12.45c-1.065,1.395-0.935,3.361,0.307,4.602l4.949,4.949
	c0.679,0.679,1.575,1.025,2.477,1.025c0.745,0,1.494-0.238,2.125-0.72l12.449-9.521c3.369,2.062,7.083,3.614,11.031,4.564
	l2.072,15.541c0.23,1.738,1.715,3.037,3.469,3.037h7c1.754,0,3.238-1.299,3.469-3.037l2.072-15.541
	c3.948-0.95,7.661-2.502,11.03-4.564l12.45,9.521c0.631,0.481,1.38,0.719,2.125,0.719c0.901,0,1.798-0.346,2.477-1.025l4.949-4.949
	c1.24-1.241,1.371-3.208,0.306-4.602l-9.521-12.449c2.062-3.369,3.614-7.083,4.564-11.031l15.541-2.072
	c1.738-0.23,3.037-1.715,3.037-3.469v-7C120,58.746,118.701,57.262,116.963,57.031z M64,88c-13.256,0-24-10.745-24-24
	s10.744-24,24-24s24,10.745,24,24S77.256,88,64,88z"/>
</svg>
