<?xml version="1.0" standalone="no"?>
<!DOCTYPE svg PUBLIC "-//W3C//DTD SVG 20010904//EN"
 "http://www.w3.org/TR/2001/REC-SVG-20010904/DTD/svg10.dtd">
<svg version="1.0" xmlns="http://www.w3.org/2000/svg"
 width="170.000000pt" height="170.000000pt" viewBox="0 0 170.000000 170.000000"
 preserveAspectRatio="xMidYMid meet">
<metadata>
Created by potrace 1.12, written by Peter Selinger 2001-2015
</metadata>
<g transform="translate(0.000000,170.000000) scale(0.100000,-0.100000)"
fill="#414F59" stroke="none">
<path d="M990 1392 c-25 -9 -59 -25 -75 -34 -40 -21 -121 -108 -141 -151 l-16
-34 -50 33 c-134 90 -299 82 -425 -22 -160 -131 -162 -374 -5 -516 77 -70 114
-83 232 -83 91 0 111 3 150 24 60 32 99 65 135 116 l31 42 43 -38 c23 -21 68
-48 99 -60 198 -75 412 11 501 200 23 49 26 68 26 161 0 100 -1 108 -34 167
-41 77 -113 146 -189 181 -73 34 -211 41 -282 14z"/>
<path d="M1310 615 c-69 -38 -321 -46 -387 -12 -18 10 -37 17 -43 17 -6 0 -33
-21 -60 -46 -48 -45 -49 -45 -75 -28 -25 16 -28 16 -62 0 -81 -39 -300 -40
-359 -2 -25 17 -25 17 -97 -56 -40 -40 -87 -99 -106 -131 -39 -66 -98 -231
-107 -300 l-7 -47 837 0 836 0 -6 28 c-37 171 -80 288 -146 400 -38 65 -157
192 -178 192 -8 -1 -26 -7 -40 -15z"/>
</g>
</svg>
