<?xml version="1.0" encoding="utf-8"?>
<!-- Generator: Adobe Illustrator 16.2.1, SVG Export Plug-In . SVG Version: 6.00 Build 0)  -->
<!DOCTYPE svg PUBLIC "-//W3C//DTD SVG 1.1//EN" "http://www.w3.org/Graphics/SVG/1.1/DTD/svg11.dtd">
<svg version="1.1" id="Icons" xmlns="http://www.w3.org/2000/svg" xmlns:xlink="http://www.w3.org/1999/xlink" x="0px" y="0px"
	 width="128px" height="128px" viewBox="0 0 128 128" enable-background="new 0 0 128 128" xml:space="preserve">
<path fill="#414F59" d="M79.557,64l24.222-24.222c4.296-4.296,4.296-11.261,0-15.557s-11.261-4.296-15.557,0L64,48.443
	L39.778,24.222c-4.296-4.296-11.261-4.296-15.557,0c-4.295,4.296-4.295,11.261,0,15.557L48.443,64L24.222,88.222
	c-4.295,4.296-4.295,11.261,0,15.557C26.37,105.926,29.185,107,32,107s5.63-1.074,7.778-3.222L64,79.557l24.222,24.222
	C90.369,105.926,93.186,107,96,107s5.631-1.074,7.778-3.222c4.296-4.296,4.296-11.261,0-15.557L79.557,64z"/>
</svg>
