<?xml version="1.0" encoding="utf-8"?>
<!-- Generator: Adobe Illustrator 16.2.1, SVG Export Plug-In . SVG Version: 6.00 Build 0)  -->
<!DOCTYPE svg PUBLIC "-//W3C//DTD SVG 1.1//EN" "http://www.w3.org/Graphics/SVG/1.1/DTD/svg11.dtd">
<svg version="1.1" id="Icons" xmlns="http://www.w3.org/2000/svg" xmlns:xlink="http://www.w3.org/1999/xlink" x="0px" y="0px"
	 width="128px" height="128px" viewBox="0 0 128 128" enable-background="new 0 0 128 128" xml:space="preserve">
<path fill="#414F59" d="M64,8C33.072,8,8,33.073,8,64c0,30.927,25.072,56,56,56c30.929,0,56-25.072,56-56C120,33.073,94.93,8,64,8z
	 M82.83,77.172c1.561,1.562,1.561,4.095,0,5.657C82.049,83.609,81.025,84,80,84c-1.023,0-2.047-0.391-2.828-1.171L64.001,69.658
	L50.83,82.829C50.048,83.609,49.025,84,48.001,84s-2.047-0.391-2.829-1.171c-1.562-1.562-1.562-4.095,0-5.657L58.344,64
	L45.172,50.829c-1.562-1.562-1.562-4.095,0-5.657c1.562-1.562,4.095-1.562,5.657,0l13.171,13.171l13.171-13.171
	c1.562-1.562,4.096-1.562,5.658,0c1.561,1.562,1.561,4.095,0,5.657L69.658,64L82.83,77.172z"/>
</svg>
