<?xml version="1.0" encoding="utf-8"?>
<!-- Generator: Adobe Illustrator 19.0.0, SVG Export Plug-In . SVG Version: 6.00 Build 0)  -->
<svg version="1.1" id="Icons" xmlns="http://www.w3.org/2000/svg" xmlns:xlink="http://www.w3.org/1999/xlink" x="0px" y="0px"
	 viewBox="0 0 128 128" style="enable-background:new 0 0 128 128;" xml:space="preserve">
<style type="text/css">
	.st0{fill:#414F59;}
</style>
<path class="st0" d="M64,8c-15,0-29,5.8-39.6,16.4C13.8,35,8,49,8,64c0,15,5.8,29,16.4,39.6C35,114.2,49,120,64,120
	c30.9,0,56-25.1,56-56C120,33.1,94.9,8,64,8z M24,64c0-10.7,4.2-20.7,11.7-28.3C43.3,28.2,53.3,24,64,24c8.1,0,15.7,2.5,22,6.6
	L30.6,86.1C26.3,79.6,24,72,24,64z M64,104c-8,0-15.6-2.3-22.1-6.6L97.4,42c4.2,6.3,6.6,13.9,6.6,22C104,86.1,86.1,104,64,104z"/>
</svg>
