<?xml version="1.0" encoding="utf-8"?>
<!-- Generator: Adobe Illustrator 16.2.1, SVG Export Plug-In . SVG Version: 6.00 Build 0)  -->
<!DOCTYPE svg PUBLIC "-//W3C//DTD SVG 1.1//EN" "http://www.w3.org/Graphics/SVG/1.1/DTD/svg11.dtd">
<svg version="1.1" id="Icons" xmlns="http://www.w3.org/2000/svg" xmlns:xlink="http://www.w3.org/1999/xlink" x="0px" y="0px"
	 width="128px" height="128px" viewBox="0 0 128 128" enable-background="new 0 0 128 128" xml:space="preserve">
<g>
	<path fill="#414F59" d="M118.082,16.462l-6.545-6.545C110.26,8.639,108.584,8,106.909,8s-3.351,0.639-4.628,1.917L57.917,54.28
		C56.689,55.509,56,57.173,56,58.909v6.546V72h6.545h6.545c1.735,0,3.4-0.689,4.628-1.917l44.363-44.363
		C120.639,23.164,120.639,19.019,118.082,16.462z"/>
	<path fill="#414F59" d="M100,100H28V28h36V16H22c-3.313,0-6,2.687-6,6v84c0,3.313,2.687,6,6,6h84c3.313,0,6-2.687,6-6V64h-12V100z"
		/>
</g>
</svg>
