<?xml version="1.0" encoding="utf-8"?>
<!-- Generator: Adobe Illustrator 16.2.1, SVG Export Plug-In . SVG Version: 6.00 Build 0)  -->
<!DOCTYPE svg PUBLIC "-//W3C//DTD SVG 1.1//EN" "http://www.w3.org/Graphics/SVG/1.1/DTD/svg11.dtd">
<svg version="1.1" id="Icons" xmlns="http://www.w3.org/2000/svg" xmlns:xlink="http://www.w3.org/1999/xlink" x="0px" y="0px"
	 width="128px" height="128px" viewBox="0 0 128 128" enable-background="new 0 0 128 128" xml:space="preserve">
<g>
	<path fill="#414F59" d="M125.639,2.348c-3.152-3.13-8.26-3.13-11.408,0l-8.381,8.326c-7.49-6.329-17.691-9.649-30.389-9.649H53.272
		c-28.384,0-44.882,17.408-45.265,47.76C7.806,64.84,11.981,77.289,20.42,85.781c7.713,7.76,18.406,11.695,31.784,11.695
		L65.36,97.48l0.013,16.511c0.003,2.434,1.479,4.624,3.741,5.552c0.746,0.306,1.528,0.457,2.308,0.457
		c1.576,0,3.125-0.614,4.283-1.766l31.106-30.984l3.405-3.534c0.104-0.104,0.203-0.218,0.299-0.329
		c6.959-8.389,10.398-20.031,10.213-34.602c-0.079-6.129-0.803-11.688-2.1-16.696l-10.402,10.339
		c0.221,2.07,0.375,4.214,0.402,6.508c0.147,11.548-2.314,20.506-7.314,26.636L77.462,99.462l-0.007-7.997
		c-0.004-3.32-2.71-6.007-6.05-6.007l-19.201-0.002c-10.024,0-17.821-2.732-23.174-8.122c-6.082-6.123-9.084-15.678-8.924-28.399
		c0.301-23.812,11.46-35.886,33.166-35.886h22.189c9.189,0,16.428,2.053,21.769,6.193L68.061,48.233V30.969
		c0-4.428-3.61-8.018-8.064-8.018c-4.455,0-8.067,3.59-8.067,8.018v36.616c0,3.242,1.965,6.165,4.979,7.405
		c0.999,0.412,2.046,0.612,3.086,0.612c2.099,0,4.161-0.817,5.704-2.35l59.94-59.568C128.787,10.551,128.787,5.479,125.639,2.348z"
		/>
</g>
</svg>
