<?xml version="1.0" encoding="utf-8"?>
<!-- Generator: Adobe Illustrator 16.2.1, SVG Export Plug-In . SVG Version: 6.00 Build 0)  -->
<!DOCTYPE svg PUBLIC "-//W3C//DTD SVG 1.1//EN" "http://www.w3.org/Graphics/SVG/1.1/DTD/svg11.dtd">
<svg version="1.1" id="Icons" xmlns="http://www.w3.org/2000/svg" xmlns:xlink="http://www.w3.org/1999/xlink" x="0px" y="0px"
	 width="128px" height="128px" viewBox="0 0 128 128" enable-background="new 0 0 128 128" xml:space="preserve">
<path fill="#414F59" d="M106,16H22c-3.3,0-6,2.7-6,6v84c0,3.3,2.7,6,6,6h84c3.3,0,6-2.7,6-6V22C112,18.7,109.3,16,106,16z
	 M75.997,64.019h-7.848c0,12.539,0,27.981,0,27.981H56.521c0,0,0-15.289,0-27.981h-5.53v-9.885h5.53v-6.396
	C56.521,43.159,58.695,36,68.256,36l8.613,0.032v9.598c0,0-5.236,0-6.252,0c-1.019,0-2.468,0.51-2.468,2.692v5.812h8.866
	L75.997,64.019z"/>
</svg>
