<?xml version="1.0" encoding="utf-8"?>
<!-- Generator: Adobe Illustrator 16.2.1, SVG Export Plug-In . SVG Version: 6.00 Build 0)  -->
<!DOCTYPE svg PUBLIC "-//W3C//DTD SVG 1.1//EN" "http://www.w3.org/Graphics/SVG/1.1/DTD/svg11.dtd">
<svg version="1.1" id="Icons" xmlns="http://www.w3.org/2000/svg" xmlns:xlink="http://www.w3.org/1999/xlink" x="0px" y="0px"
	 width="128px" height="128px" viewBox="0 0 128 128" enable-background="new 0 0 128 128" xml:space="preserve">
<path fill="#414F59" d="M64,16C33.072,16,8,24.955,8,36c0,12,40,60,40,60c0,5.844,0,13.502,0,18c0,8,32,8,32,0V96c0,0,40-48,40-60
	C120,24.955,94.928,16,64,16z M64,48c-20.434,0-37-4.738-37-10.582s16.566-10.582,37-10.582c20.434,0,37,4.738,37,10.582
	S84.434,48,64,48z"/>
</svg>
