<?xml version="1.0" encoding="utf-8"?>
<!-- Generator: Adobe Illustrator 16.2.1, SVG Export Plug-In . SVG Version: 6.00 Build 0)  -->
<!DOCTYPE svg PUBLIC "-//W3C//DTD SVG 1.1//EN" "http://www.w3.org/Graphics/SVG/1.1/DTD/svg11.dtd">
<svg version="1.1" id="Icons" xmlns="http://www.w3.org/2000/svg" xmlns:xlink="http://www.w3.org/1999/xlink" x="0px" y="0px"
	 width="128px" height="128px" viewBox="0 0 128 128" enable-background="new 0 0 128 128" xml:space="preserve">
<path fill="#414F59" d="M106,16H22c-3.3,0-6,2.7-6,6v84c0,3.3,2.7,6,6,6h84c3.3,0,6-2.7,6-6V22C112,18.7,109.3,16,106,16z
	 M48.421,76.421C41.562,76.421,36,70.856,36,64s5.562-12.419,12.421-12.419c6.856,0,12.421,5.562,12.421,12.419
	S55.277,76.421,48.421,76.421z M79.579,76.421c-6.856,0-12.417-5.564-12.417-12.421s5.561-12.419,12.417-12.419
	C86.439,51.581,92,57.144,92,64S86.439,76.421,79.579,76.421z"/>
</svg>
