<?xml version="1.0" encoding="utf-8"?>
<!-- Generator: Adobe Illustrator 16.2.1, SVG Export Plug-In . SVG Version: 6.00 Build 0)  -->
<!DOCTYPE svg PUBLIC "-//W3C//DTD SVG 1.1//EN" "http://www.w3.org/Graphics/SVG/1.1/DTD/svg11.dtd">
<svg version="1.1" id="Icons" xmlns="http://www.w3.org/2000/svg" xmlns:xlink="http://www.w3.org/1999/xlink" x="0px" y="0px"
	 width="128px" height="128px" viewBox="0 0 128 128" enable-background="new 0 0 128 128" xml:space="preserve">
<g>
	<rect x="72" y="16" fill="#414F59" width="8" height="24"/>
	<path fill="#414F59" d="M109.172,29.172L98.828,18.829C97.272,17.273,94.2,16,92,16h-4v32H40V16H20c-2.2,0-4,1.8-4,4v88
		c0,2.201,1.8,4,4,4h88c2.2,0,4-1.799,4-4V36C112,33.8,110.728,30.728,109.172,29.172z M96,104H32V64h64V104z"/>
	<rect x="40" y="72" fill="#414F59" width="48" height="8"/>
	<rect x="40" y="88" fill="#414F59" width="48" height="8"/>
</g>
</svg>
