<?xml version="1.0" encoding="utf-8"?>
<!-- Generator: Adobe Illustrator 16.2.1, SVG Export Plug-In . SVG Version: 6.00 Build 0)  -->
<!DOCTYPE svg PUBLIC "-//W3C//DTD SVG 1.1//EN" "http://www.w3.org/Graphics/SVG/1.1/DTD/svg11.dtd">
<svg version="1.1" id="Icons" xmlns="http://www.w3.org/2000/svg" xmlns:xlink="http://www.w3.org/1999/xlink" x="0px" y="0px"
	 width="128px" height="128px" viewBox="0 0 128 128" enable-background="new 0 0 128 128" xml:space="preserve">
<path fill="#414F59" d="M116.467,48H11.532c-2.199,0-3.775,1.786-3.501,3.969l7.003,56.062c0.273,2.183,2.294,3.969,4.493,3.969
	h88.945c2.197,0,4.22-1.786,4.493-3.969l7.003-56.062C120.242,49.786,118.665,48,116.467,48z"/>
<path fill="#414F59" d="M112,36c0-2.2-1.801-4-4-4H66.67l-8.451-12.672C56.999,17.498,54.2,16,51.999,16H20c-2.2,0-4,1.8-4,4v15.991
	c0,0.001,0,0.003,0,0.004c0,0.002,0,0.003,0,0.005v4h96V36z"/>
</svg>
