<?xml version="1.0" encoding="utf-8"?>
<!-- Generator: Adobe Illustrator 16.2.1, SVG Export Plug-In . SVG Version: 6.00 Build 0)  -->
<!DOCTYPE svg PUBLIC "-//W3C//DTD SVG 1.1//EN" "http://www.w3.org/Graphics/SVG/1.1/DTD/svg11.dtd">
<svg version="1.1" id="Icons" xmlns="http://www.w3.org/2000/svg" xmlns:xlink="http://www.w3.org/1999/xlink" x="0px" y="0px"
	 width="128px" height="128px" viewBox="0 0 128 128" enable-background="new 0 0 128 128" xml:space="preserve">
<g>
	<path fill="#414F59" d="M106,16H22c-3.3,0-6,2.7-6,6v84c0,3.3,2.7,6,6,6h84c3.3,0,6-2.7,6-6V22C112,18.7,109.3,16,106,16z
		 M88.646,44.154l-2.171,10.801c-1.715,8.612-3.679,18.545-3.933,19.564c-0.459,1.84-1.165,4.965-5.561,4.965
		c-3.389,0-9.619,0-10.46,0c-0.42,0-0.42,0-0.84,0.418c-0.278,0.277-16.445,18.977-16.445,18.977
		c-1.258,1.448-3.36,1.189-4.122,0.881C44.355,99.453,43,98.521,43,96.008c0,0,0-52.002,0-54.234C43,39.543,44.389,36,49.115,36
		c4.725,0,34.244,0,34.244,0C88.389,36,89.739,38.855,88.646,44.154z"/>
	<path fill="#414F59" d="M79.639,43.053c-1.072,0-27.481,0-27.481,0c-1.249,0-2.081,1.12-2.081,2.076v42.319
		c0,0.128,0.1,0.162,0.203,0.044c0,0,10.123-12.117,11.25-13.513c1.126-1.394,1.634-1.613,3.316-1.613c0,0,8.177,0,9.239,0
		c1.26,0,1.971-1.057,2.1-1.675c0.129-0.617,1.205-6.214,1.436-7.344c0.229-1.128-0.811-2.286-1.871-2.286
		c-1.059,0-11.318,0-11.318,0c-1.502,0-2.583-1.06-2.583-2.556v-1.629c0-1.494,1.074-2.515,2.576-2.515c0,0,12.396,0,13.34,0
		c0.946,0,1.965-0.849,2.137-1.656l1.438-7.468C81.595,44.001,80.65,43.053,79.639,43.053z"/>
</g>
</svg>
