<?xml version="1.0" encoding="utf-8"?>
<!-- Generator: Adobe Illustrator 16.2.1, SVG Export Plug-In . SVG Version: 6.00 Build 0)  -->
<!DOCTYPE svg PUBLIC "-//W3C//DTD SVG 1.1//EN" "http://www.w3.org/Graphics/SVG/1.1/DTD/svg11.dtd">
<svg version="1.1" id="Icons" xmlns="http://www.w3.org/2000/svg" xmlns:xlink="http://www.w3.org/1999/xlink" x="0px" y="0px"
	 width="128px" height="128px" viewBox="0 0 128 128" enable-background="new 0 0 128 128" xml:space="preserve">
<g>
	<g>
		<path fill="#414F59" d="M101.977,8c0,0-52.461,0-60.858,0C32.719,8,30.25,14.2,30.25,18.104c0,3.906,0,94.91,0,94.91
			c0,4.397,2.408,6.029,3.761,6.565c1.354,0.54,5.087,0.993,7.324-1.541c0,0,28.732-32.724,29.226-33.21
			c0.746-0.73,0.746-0.73,1.493-0.73c1.493,0,12.567,0,18.589,0c7.812,0,9.066-5.469,9.883-8.688
			c0.68-2.696,8.301-40.991,10.846-53.139C113.313,12.998,110.914,8,101.977,8z M100.525,75.409
			c0.68-2.696,8.301-40.991,10.846-53.139 M98.381,24.167l-2.555,13.069c-0.305,1.412-2.116,2.898-3.797,2.898
			c-1.68,0-23.708,0-23.708,0c-2.667,0-4.577,1.783-4.577,4.401v2.848c0,2.618,1.922,4.474,4.59,4.474c0,0,18.233,0,20.115,0
			c1.884,0,3.732,2.027,3.325,4.001c-0.41,1.978-2.321,11.771-2.552,12.852c-0.229,1.083-1.492,2.933-3.732,2.933
			c-1.887,0-16.418,0-16.418,0c-2.99,0-3.895,0.382-5.895,2.82c-2.002,2.444-19.993,23.648-19.993,23.648
			c-0.183,0.205-0.359,0.148-0.359-0.076V23.974c0-1.671,1.479-3.631,3.698-3.631c0,0,46.934,0,48.84,0
			C97.16,20.343,98.84,22.001,98.381,24.167z"/>
	</g>
</g>
</svg>
