<?xml version="1.0" encoding="utf-8"?>
<!-- Generator: Adobe Illustrator 16.2.1, SVG Export Plug-In . SVG Version: 6.00 Build 0)  -->
<!DOCTYPE svg PUBLIC "-//W3C//DTD SVG 1.1//EN" "http://www.w3.org/Graphics/SVG/1.1/DTD/svg11.dtd">
<svg version="1.1" id="Icons" xmlns="http://www.w3.org/2000/svg" xmlns:xlink="http://www.w3.org/1999/xlink" x="0px" y="0px"
	 width="128px" height="128px" viewBox="0 0 128 128" enable-background="new 0 0 128 128" xml:space="preserve">
<g>
	<path fill="#414F59" d="M62.892,54.488c0.006-0.009,0.015-0.017,0.021-0.027c-0.023-0.11-0.041-0.206-0.051-0.274
		C62.871,54.287,62.884,54.388,62.892,54.488z"/>
	<path fill="#414F59" d="M64,8C33.072,8,8,33.071,8,64s25.072,56,56,56s56-25.071,56-56S94.928,8,64,8z M111.381,54.711
		c-0.488-0.047-0.872-0.369-1.24-0.689c-0.412-0.361-0.904-0.844-1.199-1.311c-0.314-0.499-0.12-1.011-0.098-1.58
		c0.019-0.479-0.214-1.162-0.01-1.594c0.092-0.197,0.307-0.261,0.395-0.424c0.186-0.342,0.145-0.573,0.377-0.867
		c0.006-0.008,0.014-0.013,0.021-0.021C110.355,50.327,110.945,52.491,111.381,54.711z M45.808,19.284
		c0.642,0.935,1.257,0.866,2.513,1.129c-0.137,1.466-1.852,1.479-3.012,1.318c-1.386-0.188-2.843-0.649-4.041,0.565
		c0.66,0.398,2.48,1.951,2.239,0.33c1.325-0.067,2.609-0.107,3.908,0.052c0.521,0.065,2.264,0.649,2.735,0.382
		c0.198-0.112,0.41-1.09,0.619-1.391c-0.369,0.002-0.766-0.185-1.134-0.15c0.858-1.101,1.716-0.237,2.81,0.27
		c-1.205,0.732-0.491,2.486,0.688,1.062c0.967-1.173-0.236-2.022-1.466-2.706c1.239-1.549,2.004-1.69,3.169,0.06
		c0.191-1.079,1.062-0.647,1.972-0.567v-0.27c-0.401,0.009-0.827-0.221-1.225-0.18c0.927-1.479,0.336-1.816,1.661-2.299
		c1.055-0.384,4.063-0.027,4.437-1.018c-2.108,0.409-4.652,0.506-6.553,1.464c-0.819,0.414-1.796,1.717-2.614,0.869
		c-0.299-0.309-0.301-0.686-0.156-1.062c3.73-0.927,7.629-1.428,11.643-1.428c1.975,0,3.918,0.133,5.831,0.365
		c-1.082,0.734-2.848,1.352-4.056,1.824c1.606-0.005,5.499,1.507,6.246-0.748c-0.518-0.08-1.035-0.16-1.555-0.24
		c0.339-0.225,0.707-0.415,1.072-0.608c10.334,1.627,19.59,6.542,26.657,13.639c-1.164,0.087-2.157,0.309-3.25,1.062
		c-0.624,0.432-1.048,1.005-1.841,1.227c-0.711,0.199-1.479,0.024-2.184,0.263c-2.544,0.864-2.139,6.313-5.493,5.491
		c-1.576-0.387-2.686-2.248-3.478-3.463c-0.697-1.069-1.97-1.954-1.111-3.292c-0.393,0.101-0.809-0.015-1.193,0.06
		c0.537-1.18,2.336-1.077,2.638-1.679c0.745-1.511-2.056-1.669-2.85-1.878c0.956-1.02,1.441,0.343,2.385,0.112
		c0.907-0.223-0.478-1.418-1.023-1.552c-0.194-0.048-3.39,0.882-1.539-0.771c-2.283-1.454-4.563-2.909-6.844-4.363
		c-0.386,1.617,3.035,2.537,4.152,3.107c-0.174,0.668-1.213,1.642-2.009,1.356c-0.749-0.269-0.443-1.511-1.576-1.386
		c-0.809,1.879,1.709,1.33,1.941,2.482c0.266,1.312-0.95,0.756-1.42,0.732c-0.11-0.005-0.984-0.909-1.029-0.225
		c-0.058,0.812,1.392,0.496,1.492,1.316c-1.687,0.067-2.548-0.542-3.922-1.454c-1.602-1.064-2.426-0.968-4.389-0.968
		c0.588-0.242,1.396-0.42,1.898-0.808c0.275-0.213,1.352-1.259,1.424-1.493c0.302-1.007-0.018-0.931-0.982-1.592
		c-0.857-0.586-1.896-1.639-2.935-1.847c-3.762-0.751-1.159,3.398-4.017,3.971c0.049,0.001,0.102,0.004,0.143,0.004h-0.161
		c0.005-0.001,0.011-0.003,0.019-0.004c-0.661-0.024-1.9-0.186-2.326,0.164c-0.299,0.245-0.326,1.231-0.662,1.587
		c-0.597,0.637-1.487,0.766-2.201,1.225c-0.697,0.449-2.231,1.6-2.643,2.382c-1.506,2.88,3.397,3.774,5.258,4.616
		c0.838,0.38,3.294,0.901,3.75,1.537c0.613,0.854-0.528,1.654,0.752,2.254c0.41,0.191,1.252,0.229,1.605-0.167
		c0.572-0.645-0.232-0.791-0.369-1.535c-0.266-1.435,0.172-0.865,0.892-1.398c1.471-1.085,1.14-1.151,0.611-2.88
		c-0.246-0.806-1.172-3.054-0.358-3.648c1.064-0.775,3.33,0.42,4.145,0.521c0.95,0.116,1.488,1.431,2.004,1.967
		c0.344,0.357,0.959,1.114,1.558,1.032c0.952-0.131,0.555-0.962,1.106-1.346c1.48-1.027,1.872,0.368,2.462,1.764
		c0.555,1.311,1.08,1.797,2.069,2.638c0.458,0.392,2.47,1.789,2.281,2.65c-0.128,0.58-2.429,1.46-3.041,1.655
		c-2.247,0.711-6.461-1.165-6.912,2.397c0.87-0.325,3.347-2.35,4.093-1.391c0.339,0.437-0.27,1.071-0.126,1.503
		c0.425,1.296,1.423,0.845,2.471,0.635c-0.069,0.044-0.143,0.083-0.22,0.117c1.433-0.736,1.284-0.582,1.94-1.777
		c0.214-0.39,0.534-1.334,0.838-1.614c1.041-0.957,1.2-0.298,1.846,0.442c0.168,0.194,1.764,2.491,1.197,2.376
		c-1.855-0.372-3.639-0.322-5.176,0.693c-0.889,0.585-1.726,1.375-2.786,1.765c-0.252,0.091-2.133,0.271-1.911-0.051
		c0.325-0.467,1.443-0.777,1.881-1.281c-1.219-0.503-2.238,0.608-3.197,1.256c-1.019,0.482-1.254,1.379-2.121,2.167
		c-0.379,0.343-1.094,0.401-1.466,0.853c-0.36,0.438-0.405,1.126-0.746,1.543c-0.24,0.292-0.854,0.114-1.104,0.554
		c-0.324,0.574,0.298,1.105,0.161,1.52c-0.249,0.75-1.677,1.388-2.228,1.928c0.075-0.07,0.146-0.143,0.219-0.216
		c-0.551,0.577-1.246,1.001-1.676,1.669c0.197,0.943,0.819,3.192,0.646,3.71c-0.574,1.703-1.685-0.926-2.137-1.605
		c-1.549-2.333-4.645-0.772-6.759-0.578c-2.702,0.248-5.354,3.756-3.685,6.607c0.801,1.367,2.148,1.894,3.693,1.579
		c1.376-0.282,1.789-2.206,3.084-2.241c2.38-0.062,0.051,2.332-0.154,3.211c-0.189,0.814,0.297,0.891,1.135,1.092
		c0.62,0.148,1.497-0.264,2.033,0.089c0.337,0.223,0.322,1.444,0.787,1.06c-0.915,0.759-0.703,2.558,0.238,3.209
		c1.037,0.721,2.265,0.053,3.353,0.33c2.057,0.525,1.074-0.157,2.88-1.248c1.221-0.734,1.421,0.139,2.254,0.143
		c0.568,0.002,0.928-0.815,1.875-0.578c0.772,0.195,1.078,0.792,2.002,0.93c0.379,0.055,0.768-0.143,1.131-0.104
		c1.704,0.189,3.012,1.279,4.357,2.267c1.108,0.812,1.842,0.646,3.137,1.018c0.945,0.27,2.689,1.638,2.602,2.84
		c-0.017,0.214-0.843,1.296-0.984,1.782c0.243,0.168,1.925-0.209,2.417-0.244c-0.162,0.188-1.306,0.994-1.306,0.566
		c0,0.219,0.808,0.67,1.007,0.809c0.597-1.941,1.579-0.691,2.762-0.211c1.007,0.41,2.241,0.431,3.312,0.687
		c0.911,0.216,2.917,0.831,3.591,1.574c0.812,0.896,0.251,2.349-0.349,3.24c-0.786,1.167-1.971,1.614-2.458,2.988
		c-0.388,1.089-0.099,2.188-0.318,3.395c-0.3,1.634-0.54,1.062-1.593,2.058c-0.884,0.838-0.015,0.693-1.22,1.228
		c-1.211,0.539-2.274,0.379-3.113,1.707c0.032-0.085,0.061-0.169,0.084-0.255c-0.353,0.494-0.53,1.508-0.698,1.84
		c-0.423,0.849-1.005,1.384-1.673,2.091c-0.257,0.271-2.611,3.487-2.748,3.229c-0.174-0.336-2.028,0.337-2.119-0.142
		c0.074,0.402-0.017,0.268,0.443,0.5c-0.427,2.643-1.545,3.037-4.14,3.063c0.224,1.271-0.94,1.017-1.481,1.7
		c-0.316,0.399-0.466,1.521-0.686,2.037c-0.107,0.254-0.747,1.102-1.021,1.583c-1.82,0.349-3.676,0.591-5.562,0.728
		c0.347-0.607,0.873-1.055,1.127-1.723c0.143-0.375,0.023-0.523,0.146-0.896c0.412-1.284,0.234-0.8,0-1.798
		c-0.546-2.338,0.196-2.977,0.833-5.117c0.653-2.2,0.594-5.052,1.013-7.422c0.198-1.133,0.522-3.492,0.13-4.564
		c-0.444-1.208-2.395-2.158-3.288-2.971c-1.27-1.152-1.94-2.398-2.88-3.824c-0.477-0.723-1.021-1.434-1.392-2.222
		c-0.799-1.683,0-0.68,0.132-1.673c0.129-0.959-0.113-1.817,0.27-2.825c0.42-1.114,1.472-1.807,1.818-2.931
		c0.311-1,0.074-2.256-0.954-2.589c-0.571-0.187-1.203,0.243-1.777,0.148c-0.802-0.13-1.71-0.729-2.338-1.207
		c-0.878-0.669-1.209-1.757-2.144-2.392c-0.783-0.529-1.34-0.211-2.179-0.459c-0.873-0.258-1.412-1.336-2.118-1.674
		c-1.058-0.505-1.65,0.221-2.77,0.074c-0.948-0.125-2.398-1.177-3.283-1.574c-1.808-0.808-2.902-1.699-3.626-3.53
		c-0.617-1.569-1.517-2.301-2.578-3.609c-1.074-1.325-1.411-2.454-3.067-2.807c-0.193-0.042,0.406,1.392,0.469,1.506
		c0.591,1.096,1.479,2.098,2.195,3.117c1.052,1.502,0.602,1.784-0.466,0.332c-1.226-1.663-2.645-3.317-3.704-5.076
		c-0.403-0.666-0.326-1.097-0.986-1.728c-0.642-0.61-1.476-0.909-2.122-1.488c-2.315-2.084-2.735-4.864-2.472-7.834
		c0.085-0.968,0.436-1.742,0.281-2.673c-0.13-0.772-0.584-1.411-1.153-1.981c-0.185-0.292-0.645-1.013-0.671-1.058
		c-0.527-0.874-0.937-1.733-1.773-2.45c-0.333-0.288-1.041-0.846-1.835-1.433C31.477,27.443,38.152,22.41,45.808,19.284z
		 M109.475,75.215c-0.963-0.838-2.098-1.957-2.783-3.04c-0.728-1.153-0.279-2.341-0.226-3.663c0.045-1.112-0.497-2.694-0.026-3.695
		c0.217-0.457,0.715-0.607,0.919-0.983c0.435-0.792,0.338-1.328,0.874-2.01c0.571-0.731,1.341-0.912,1.979-1.486
		c0.668-0.602,0.649-1.077,1.073-1.848c0.127-0.232,0.334-0.53,0.571-0.832c0.274,2.077,0.43,4.191,0.43,6.342
		c0,4.215-0.546,8.303-1.565,12.203C110.284,75.912,109.875,75.562,109.475,75.215z"/>
	<polygon fill="#414F59" points="84.398,77.974 84.4,77.973 84.385,77.968 	"/>
	<path fill="#414F59" d="M84.951,78.043c-0.135-0.021-0.434,0.018-0.553-0.069C84.326,78.227,84.438,78.321,84.951,78.043z"/>
</g>
</svg>
