<?xml version="1.0" encoding="utf-8"?>
<!-- Generator: Adobe Illustrator 16.2.1, SVG Export Plug-In . SVG Version: 6.00 Build 0)  -->
<!DOCTYPE svg PUBLIC "-//W3C//DTD SVG 1.1//EN" "http://www.w3.org/Graphics/SVG/1.1/DTD/svg11.dtd">
<svg version="1.1" id="Icons" xmlns="http://www.w3.org/2000/svg" xmlns:xlink="http://www.w3.org/1999/xlink" x="0px" y="0px"
	 width="128px" height="128px" viewBox="0 0 128 128" enable-background="new 0 0 128 128" xml:space="preserve">
<g>
	<polygon fill="#414F59" points="101.832,27.547 101.832,13.399 94.759,13.399 94.759,27.547 80.618,27.547 80.618,34.62 
		94.759,34.62 94.759,48.762 101.832,48.762 101.832,34.62 115.979,34.62 115.979,27.547 	"/>
	<path fill="#414F59" d="M78.154,11.984c0,0-22.644,0-30.664,0c-15.557,0-28.528,11.473-28.528,24.097
		c0,12.897,8.521,23.177,23.156,23.177c1.017,0,2.007-0.057,2.972-0.127c-0.952,1.823-1.625,3.855-1.625,5.981
		c0,3.581,1.968,5.626,4.406,7.991c-1.841,0-3.619,0.051-5.562,0.051c-17.818,0-30.289,12.268-30.289,24.027
		c0,11.596,15.036,18.834,32.854,18.834c20.307,0,32.798-11.519,32.798-23.113c0-9.283-2.007-13.957-11.907-21.383
		c-2.844-2.133-9.029-6.509-9.029-9.442c0-3.435,0.979-5.131,6.16-9.175c5.303-4.147,9.055-9.608,9.055-16.39
		c0-7.384-3.016-14.084-8.699-17.335h8.051L78.154,11.984z M67.759,90.908c0.254,1.067,0.394,2.172,0.394,3.303
		c0,9.372-6.032,16.687-23.347,16.687c-12.313,0-21.209-7.798-21.209-17.157c0-9.182,10.432-17.094,22.751-16.953
		c2.87,0.025,5.55,0.482,7.976,1.27C61.016,82.705,66.4,85.613,67.759,90.908z M48.044,54.571
		c-8.268-0.254-16.123-7.836-17.546-18.687c-1.435-10.853,4.115-19.158,12.377-18.917c8.261,0.254,15.334,9.156,16.757,20.009
		C61.054,47.828,56.304,54.812,48.044,54.571z"/>
</g>
</svg>
