<?xml version="1.0" encoding="utf-8"?>
<!-- Generator: Adobe Illustrator 16.2.1, SVG Export Plug-In . SVG Version: 6.00 Build 0)  -->
<!DOCTYPE svg PUBLIC "-//W3C//DTD SVG 1.1//EN" "http://www.w3.org/Graphics/SVG/1.1/DTD/svg11.dtd">
<svg version="1.1" id="Icons" xmlns="http://www.w3.org/2000/svg" xmlns:xlink="http://www.w3.org/1999/xlink" x="0px" y="0px"
	 width="128px" height="128px" viewBox="0 0 128 128" enable-background="new 0 0 128 128" xml:space="preserve">
<g>
	<path fill="#414F59" d="M55.491,74.883c-6.636-0.075-12.255,4.184-12.255,9.126c0,5.039,4.792,9.236,11.424,9.236
		c9.327,0,12.576-3.938,12.576-8.982c0-0.609-0.074-1.203-0.211-1.777c-0.732-2.852-3.633-4.417-7.238-6.919
		C58.48,75.143,57.037,74.896,55.491,74.883z"/>
	<path fill="#414F59" d="M53.621,42.683c-4.451-0.13-7.44,4.341-6.667,10.184c0.766,5.84,4.998,9.922,9.451,10.059
		c4.45,0.13,7.009-3.631,6.242-9.471C61.881,47.611,58.07,42.819,53.621,42.683z"/>
	<path fill="#414F59" d="M106,16H22c-3.3,0-6,2.7-6,6v84c0,3.3,2.7,6,6,6h84c3.3,0,6-2.7,6-6V22C112,18.7,109.3,16,106,16z
		 M69.282,53.204c0,3.65-2.021,6.59-4.878,8.822c-2.791,2.177-3.317,3.09-3.317,4.938c0,1.579,3.331,3.935,4.864,5.083
		c5.333,3.997,6.414,6.513,6.414,11.51C72.365,89.8,65.637,96,54.697,96C45.1,96,37,92.104,37,85.862
		c0-6.331,6.718-12.935,16.315-12.935c1.047,0,2.005-0.027,2.997-0.027c-1.314-1.273-2.374-2.374-2.374-4.302
		c0-1.145,0.362-2.238,0.876-3.22c-0.521,0.038-1.055,0.068-1.602,0.068c-7.884,0-12.474-5.533-12.474-12.476
		C40.739,46.176,47.727,40,56.107,40c4.32,0,16.518,0,16.518,0l-3.691,3.872h-4.337C67.658,45.622,69.282,49.229,69.282,53.204z
		 M93,52.185h-7.621v7.613h-3.811v-7.613h-7.616v-3.808h7.616v-7.615h3.811v7.615H93V52.185z"/>
</g>
</svg>
