<?xml version="1.0" encoding="utf-8"?>
<!-- Generator: Adobe Illustrator 16.2.1, SVG Export Plug-In . SVG Version: 6.00 Build 0)  -->
<!DOCTYPE svg PUBLIC "-//W3C//DTD SVG 1.1//EN" "http://www.w3.org/Graphics/SVG/1.1/DTD/svg11.dtd">
<svg version="1.1" id="Icons" xmlns="http://www.w3.org/2000/svg" xmlns:xlink="http://www.w3.org/1999/xlink" x="0px" y="0px"
	 width="128px" height="128px" viewBox="0 0 128 128" enable-background="new 0 0 128 128" xml:space="preserve">
<g>
	<circle fill="#414F59" cx="64" cy="64" r="56"/>
	<circle fill="#FFFFFF" cx="64" cy="88.266" r="7"/>
	<g>
		<path fill="#FFFFFF" d="M56.744,69.782v-5.975c0-1.329,0.604-2.28,1.814-2.854c1.207-0.574,2.639-1.042,4.295-1.405
			c0.252-0.121,0.524-0.211,0.811-0.272c0.287-0.059,0.557-0.12,0.812-0.18c1.909-0.483,3.657-1.238,5.249-2.266
			c1.59-1.026,2.387-2.839,2.387-5.437c0-1.994-0.812-3.639-2.434-4.939c-1.623-1.298-3.453-1.948-5.489-1.948
			c-1.973,0-3.612,0.468-4.915,1.405c-1.305,0.937-2.466,1.948-3.484,3.035c-0.191,0.242-0.367,0.454-0.525,0.635
			c-0.159,0.182-0.333,0.362-0.525,0.544c-0.828,0.906-1.703,1.691-2.625,2.356c-0.923,0.666-2.021,0.997-3.293,0.997
			c-1.718,0-3.118-0.589-4.199-1.767C43.541,50.531,43,48.945,43,46.952c0-3.624,1.51-6.629,4.534-9.016
			c3.021-2.386,6.348-4.062,9.974-5.029c1.145-0.301,2.29-0.528,3.437-0.68C62.09,32.077,63.17,32,64.188,32
			c6.171,0,11.517,1.708,16.036,5.121C84.74,40.534,87,45.291,87,51.393c0,5.015-1.527,9.017-4.582,12.007
			c-3.053,2.99-7.03,5.09-11.93,6.298v0.085c0,1.872-0.637,3.397-1.908,4.576c-1.274,1.177-2.929,1.767-4.964,1.767
			c-2.164,0-3.851-0.59-5.058-1.767c-1.211-1.179-1.814-2.674-1.814-4.485V69.782z"/>
	</g>
</g>
</svg>
