<?xml version="1.0" encoding="utf-8"?>
<!-- Generator: Adobe Illustrator 16.2.1, SVG Export Plug-In . SVG Version: 6.00 Build 0)  -->
<!DOCTYPE svg PUBLIC "-//W3C//DTD SVG 1.1//EN" "http://www.w3.org/Graphics/SVG/1.1/DTD/svg11.dtd">
<svg version="1.1" id="Icons" xmlns="http://www.w3.org/2000/svg" xmlns:xlink="http://www.w3.org/1999/xlink" x="0px" y="0px"
	 width="128px" height="128px" viewBox="0 0 128 128" enable-background="new 0 0 128 128" xml:space="preserve">
<g>
	<path fill="#414F59" d="M64,70.751c6.947,0,6.75-6.75,6.75-6.75s-0.533-6.75-6.75-6.75c-6.215,0-6.75,6.75-6.75,6.75
		S57.055,70.751,64,70.751z"/>
	<rect x="74.125" y="43.75" fill="#414F59" width="10.125" height="10.126"/>
	<path fill="#414F59" d="M77.022,60.626c0.28,1.083,0.478,2.202,0.478,3.373v0.002c0,7.454-6.045,13.5-13.5,13.5
		s-13.5-6.046-13.5-13.5c0-1.172,0.198-2.292,0.477-3.375H50.5h-6.75v23.625h6.75h3.375h20.25H84.25V74.126V64.001v-3.375H77.5
		H77.022z"/>
	<path fill="#414F59" d="M106,16H22c-3.3,0-6,2.7-6,6v84c0,3.3,2.7,6,6,6h84c3.3,0,6-2.7,6-6V22C112,18.7,109.3,16,106,16z
		 M91,43.75v40.501v0.001v3.374c0,1.864-1.51,3.375-3.375,3.375H84.25h-40.5h-3.375C38.51,91.001,37,89.49,37,87.626V77.501V53.876
		V40.375C37,38.512,38.51,37,40.375,37h13.5h20.25h13.5C89.49,37,91,38.512,91,40.375V43.75z"/>
</g>
</svg>
