<?xml version="1.0" encoding="utf-8"?>
<!-- Generator: Adobe Illustrator 16.2.1, SVG Export Plug-In . SVG Version: 6.00 Build 0)  -->
<!DOCTYPE svg PUBLIC "-//W3C//DTD SVG 1.1//EN" "http://www.w3.org/Graphics/SVG/1.1/DTD/svg11.dtd">
<svg version="1.1" id="Icons" xmlns="http://www.w3.org/2000/svg" xmlns:xlink="http://www.w3.org/1999/xlink" x="0px" y="0px"
	 width="128px" height="128px" viewBox="0 0 128 128" enable-background="new 0 0 128 128" xml:space="preserve">
<path fill-rule="evenodd" clip-rule="evenodd" fill="#414F59" d="M112,100.003v5.998c0,3.314-2.684,6-6,6h-6l0,0H28l0,0h-6
	c-3.316,0-6-2.686-6-6v-18l0,0v-42l0,0V22c0-3.313,2.684-6,6-6h24l0,0h36l0,0h24c3.316,0,6,2.687,6,6v6l0,0v72.001
	C112,100.001,112,100.001,112,100.003z M64,52.001c-11.051,0-12,12-12,12s-0.347,12,12,12c12.352,0,12-12,12-12
	S75.051,52.001,64,52.001z M100,28H82v18.001h18V28z M100,64.001L100,64.001v-6H88l0,0h-0.849C87.648,59.928,88,61.915,88,63.997
	v0.004l0,0l0,0c0,13.253-10.746,24-24,24s-24-10.747-24-24c0-2.082,0.352-4.073,0.849-6H40l0,0H28v42h12h6l0,0h36l0,0h18v-18l0,0
	V64.001z"/>
</svg>
