<?xml version="1.0" encoding="utf-8"?>
<!-- Generator: Adobe Illustrator 16.2.1, SVG Export Plug-In . SVG Version: 6.00 Build 0)  -->
<!DOCTYPE svg PUBLIC "-//W3C//DTD SVG 1.1//EN" "http://www.w3.org/Graphics/SVG/1.1/DTD/svg11.dtd">
<svg version="1.1" id="Icons" xmlns="http://www.w3.org/2000/svg" xmlns:xlink="http://www.w3.org/1999/xlink" x="0px" y="0px"
	 width="128px" height="128px" viewBox="0 0 128 128" enable-background="new 0 0 128 128" xml:space="preserve">
<path fill="#414F59" d="M96.253,44H95.04c-3.468-13.772-15.953-24-30.787-24H31.747C14.241,20,0,34.242,0,51.747v0.506
	C0,69.758,14.241,84,31.747,84h1.213c3.468,13.772,15.953,24,30.787,24h32.506C113.759,108,128,93.758,128,76.253v-0.506
	C128,58.242,113.759,44,96.253,44z M16,52.253v-0.506C16,43.064,23.064,36,31.747,36h32.506c5.866,0,10.983,3.23,13.693,8H63.747
	c-11.777,0-22.069,6.451-27.549,16h27.549H64h13.946c-2.71,4.77-7.827,8-13.693,8H31.747C23.064,68,16,60.936,16,52.253z
	 M112,76.253C112,84.936,104.936,92,96.253,92H63.747c-5.866,0-10.983-3.23-13.693-8h14.199c14.834,0,27.319-10.228,30.787-24h1.213
	C104.936,60,112,67.064,112,75.747V76.253z"/>
</svg>
