<?xml version="1.0" encoding="utf-8"?>
<!-- Generator: Adobe Illustrator 16.2.1, SVG Export Plug-In . SVG Version: 6.00 Build 0)  -->
<!DOCTYPE svg PUBLIC "-//W3C//DTD SVG 1.1//EN" "http://www.w3.org/Graphics/SVG/1.1/DTD/svg11.dtd">
<svg version="1.1" id="Icons" xmlns="http://www.w3.org/2000/svg" xmlns:xlink="http://www.w3.org/1999/xlink" x="0px" y="0px"
	 width="128px" height="128px" viewBox="0 0 128 128" enable-background="new 0 0 128 128" xml:space="preserve">
<path fill="#414F59" d="M106,16H22c-3.3,0-6,2.7-6,6v84c0,3.3,2.7,6,6,6h84c3.3,0,6-2.7,6-6V22C112,18.7,109.3,16,106,16z
	 M48.715,90.763H36.708V54.653h12.007V90.763z M42.71,49.722h-0.079c-4.026,0-6.631-2.779-6.631-6.241
	c0-3.543,2.687-6.243,6.788-6.243c4.108,0,6.638,2.7,6.713,6.243C49.501,46.942,46.896,49.722,42.71,49.722z M92,90.763H79.996
	V71.444c0-4.854-1.736-8.171-6.084-8.171c-3.312,0-5.291,2.244-6.159,4.396c-0.317,0.774-0.396,1.841-0.396,2.928v20.166h-12
	c0,0,0.153-32.726,0-36.109h12v5.112c1.6-2.463,4.45-5.96,10.821-5.96C86.073,53.806,92,58.964,92,70.057V90.763z"/>
</svg>
