<?xml version="1.0" encoding="utf-8"?>
<!-- Generator: Adobe Illustrator 16.2.1, SVG Export Plug-In . SVG Version: 6.00 Build 0)  -->
<!DOCTYPE svg PUBLIC "-//W3C//DTD SVG 1.1//EN" "http://www.w3.org/Graphics/SVG/1.1/DTD/svg11.dtd">
<svg version="1.1" id="Icons" xmlns="http://www.w3.org/2000/svg" xmlns:xlink="http://www.w3.org/1999/xlink" x="0px" y="0px"
	 width="128px" height="128px" viewBox="0 0 128 128" enable-background="new 0 0 128 128" xml:space="preserve">
<g>
	<path fill="#414F59" d="M70.498,56.03V55.8c-0.039,0.078-0.098,0.164-0.15,0.23H70.498z"/>
	<path fill="#414F59" d="M34.401,115.823h-23.25V45.901h23.25V115.823z M22.773,36.351h-0.153c-7.796,0-12.84-5.383-12.84-12.085
		c0-6.86,5.202-12.089,13.144-12.089c7.955,0,12.853,5.229,13,12.089C35.924,30.968,30.879,36.351,22.773,36.351z M118.219,115.823
		H94.975V78.415c0-9.398-3.361-15.822-11.781-15.822c-6.412,0-10.246,4.346-11.926,8.512c-0.615,1.5-0.77,3.564-0.77,5.669v39.05
		H47.262c0,0,0.297-63.369,0-69.922h23.236V55.8c3.098-4.769,8.619-11.541,20.955-11.541c15.289,0,26.766,9.99,26.766,31.469
		V115.823z"/>
</g>
</svg>
