<?xml version="1.0" encoding="utf-8"?>
<!-- Generator: Adobe Illustrator 16.2.1, SVG Export Plug-In . SVG Version: 6.00 Build 0)  -->
<!DOCTYPE svg PUBLIC "-//W3C//DTD SVG 1.1//EN" "http://www.w3.org/Graphics/SVG/1.1/DTD/svg11.dtd">
<svg version="1.1" id="Icons" xmlns="http://www.w3.org/2000/svg" xmlns:xlink="http://www.w3.org/1999/xlink" x="0px" y="0px"
	 width="128px" height="128px" viewBox="0 0 128 128" enable-background="new 0 0 128 128" xml:space="preserve">
<g>
	<path fill="#414F59" d="M65.439,96.348c-2.317,0-5.315,0-11.578,0c-8.407,0-14.229-5.36-14.229-14.16c0-6.84,0-42.199,0-50.325
		c0-8.134-5.654-12.196-8.922-12.196c-3.27,0-11.71,0-11.71,0c0,40.915,0,40.509,0,61.645c0,21.135,14.134,34.413,32.41,34.413
		c12.529,0,23.426,0,23.426,0s0-3.252,0-10.022C74.836,98.924,67.752,96.348,65.439,96.348z"/>
	<path fill="#414F59" d="M99.645,42.943c-2.202,0-12.39,0-12.39,0s0,53.614,0,62.102S94.137,116,96.889,116
		c2.756,0,10.186,0,10.186,0s0-57.171,0-63.197C107.074,46.778,101.847,42.943,99.645,42.943z"/>
	<path fill="#414F59" d="M97.302,35.277c6.462,0,11.698-5.213,11.698-11.636C109,17.213,103.764,12,97.302,12
		c-6.46,0-11.696,5.213-11.696,11.641C85.605,30.064,90.842,35.277,97.302,35.277z"/>
</g>
</svg>
