<?xml version="1.0" encoding="utf-8"?>
<!-- Generator: Adobe Illustrator 16.2.1, SVG Export Plug-In . SVG Version: 6.00 Build 0)  -->
<!DOCTYPE svg PUBLIC "-//W3C//DTD SVG 1.1//EN" "http://www.w3.org/Graphics/SVG/1.1/DTD/svg11.dtd">
<svg version="1.1" id="Icons" xmlns="http://www.w3.org/2000/svg" xmlns:xlink="http://www.w3.org/1999/xlink" x="0px" y="0px"
	 width="128px" height="128px" viewBox="0 0 128 128" enable-background="new 0 0 128 128" xml:space="preserve">
<path fill="#414F59" d="M106,16H22c-3.3,0-6,2.7-6,6v84c0,3.3,2.7,6,6,6h84c3.3,0,6-2.7,6-6V22C112,18.7,109.3,16,106,16z
	 M68.816,87.877c0,0-4.843,0-10.411,0C50.282,87.877,44,81.949,44,72.514s0-12.826,0-31.092c0,0,3.752,0,5.205,0
	c1.452,0,3.965,1.814,3.965,5.445c0,3.627,0,22.984,0,26.038c0,3.929,2.588,6.321,6.325,6.321c2.783,0,4.115,0,5.145,0
	c1.028,0,4.177,1.15,4.177,4.176C68.816,86.425,68.816,87.877,68.816,87.877z M83.145,88c0,0-3.303,0-4.527,0
	c-1.223,0-4.281-1.102-4.281-4.891s0-31.295,0-31.295s4.527,0,5.506,0s3.303,1.711,3.303,4.4C83.145,58.906,83.145,88,83.145,88z
	 M78.801,48.392c-2.871,0-5.198-2.327-5.198-5.194c0-2.869,2.327-5.197,5.198-5.197C81.673,38,84,40.328,84,43.197
	C84,46.064,81.673,48.392,78.801,48.392z"/>
</svg>
