<?xml version="1.0" encoding="utf-8"?>
<!-- Generator: Adobe Illustrator 16.2.1, SVG Export Plug-In . SVG Version: 6.00 Build 0)  -->
<!DOCTYPE svg PUBLIC "-//W3C//DTD SVG 1.1//EN" "http://www.w3.org/Graphics/SVG/1.1/DTD/svg11.dtd">
<svg version="1.1" id="Icons" xmlns="http://www.w3.org/2000/svg" xmlns:xlink="http://www.w3.org/1999/xlink" x="0px" y="0px"
	 width="128px" height="128px" viewBox="0 0 128 128" enable-background="new 0 0 128 128" xml:space="preserve">
<path fill="#414F59" d="M64,0C37.533,0,16,21.533,16,48c0,34.913,40.614,75.928,42.343,77.657C59.905,127.219,61.953,128,64,128
	s4.095-0.781,5.657-2.343C71.385,123.928,112,82.913,112,48C112,21.533,90.467,0,64,0z M64,72c-13.255,0-24-10.745-24-24
	c0-13.254,10.745-24,24-24s24,10.746,24,24C88,61.255,77.255,72,64,72z"/>
</svg>
