<?xml version="1.0" encoding="utf-8"?>
<!-- Generator: Adobe Illustrator 16.2.1, SVG Export Plug-In . SVG Version: 6.00 Build 0)  -->
<!DOCTYPE svg PUBLIC "-//W3C//DTD SVG 1.1//EN" "http://www.w3.org/Graphics/SVG/1.1/DTD/svg11.dtd">
<svg version="1.1" id="Icons" xmlns="http://www.w3.org/2000/svg" xmlns:xlink="http://www.w3.org/1999/xlink" x="0px" y="0px"
	 width="128px" height="128px" viewBox="0 0 128 128" enable-background="new 0 0 128 128" xml:space="preserve">
<path fill="#414F59" d="M108,48H96v-8C96,22.327,81.673,8,64,8S32,22.327,32,40v8H20c-2.2,0-4,1.8-4,4v64c0,2.2,1.8,4,4,4h88
	c2.2,0,4-1.8,4-4V52C112,49.8,110.2,48,108,48z M68,89.162V100c0,2.2-1.8,4-4,4s-4-1.8-4-4V89.162C56.47,87.618,54,84.1,54,80
	c0-5.522,4.478-10,10-10s10,4.478,10,10C74,84.1,71.53,87.618,68,89.162z M82,48H46v-8c0-9.925,8.075-18,18-18s18,8.075,18,18V48z"
	/>
</svg>
