<?xml version="1.0" encoding="utf-8"?>
<!-- Generator: Adobe Illustrator 16.2.1, SVG Export Plug-In . SVG Version: 6.00 Build 0)  -->
<!DOCTYPE svg PUBLIC "-//W3C//DTD SVG 1.1//EN" "http://www.w3.org/Graphics/SVG/1.1/DTD/svg11.dtd">
<svg version="1.1" id="Icons" xmlns="http://www.w3.org/2000/svg" xmlns:xlink="http://www.w3.org/1999/xlink" x="0px" y="0px"
	 width="128px" height="128px" viewBox="0 0 128 128" enable-background="new 0 0 128 128" xml:space="preserve">
<path fill="#414F59" d="M61.439,67.072C62.182,67.691,63.09,68,64,68s1.818-0.309,2.561-0.928L112,29.207v30.131
	c2.855,1.248,5.539,2.812,8,4.661V20c0-2.2-1.8-4-4-4H12c-2.2,0-4,1.8-4,4v72c0,2.2,1.8,4,4,4h44c0-2.74,0.277-5.415,0.802-8H16
	V29.207L61.439,67.072z M105.752,24L64,58.793L22.248,24H105.752z M96,64c-17.673,0-32,14.326-32,32c0,17.673,14.327,32,32,32
	c17.674,0,32-14.327,32-32C128,78.326,113.674,64,96,64z M111.379,106.252c-0.386,0.578-1.02,0.891-1.666,0.891
	c-0.382,0-0.768-0.108-1.107-0.336l-13.715-9.143C94.334,97.293,94,96.669,94,96V77.715c0-1.105,0.896-2,2-2s2,0.895,2,2V94.93
	l12.824,8.549C111.742,104.092,111.991,105.333,111.379,106.252z"/>
</svg>
