<?xml version="1.0" encoding="utf-8"?>
<!-- Generator: Adobe Illustrator 16.2.1, SVG Export Plug-In . SVG Version: 6.00 Build 0)  -->
<!DOCTYPE svg PUBLIC "-//W3C//DTD SVG 1.1//EN" "http://www.w3.org/Graphics/SVG/1.1/DTD/svg11.dtd">
<svg version="1.1" id="Icons" xmlns="http://www.w3.org/2000/svg" xmlns:xlink="http://www.w3.org/1999/xlink" x="0px" y="0px"
	 width="128px" height="128px" viewBox="0 0 128 128" enable-background="new 0 0 128 128" xml:space="preserve">
<path fill="#414F59" d="M105.106,19.844C104.498,17.73,102.2,16,100,16H28c-2.2,0-4.498,1.73-5.106,3.844L8,68v36c0,2.2,1.8,4,4,4
	h104c2.2,0,4-1.8,4-4V68L105.106,19.844z M80,68L80,68c0,8.837-7.164,16-16,16c-8.837,0-16-7.163-16-16l0,0H23.883l9.15-40h61.934
	L104,68H80z"/>
</svg>
