<?xml version="1.0" encoding="utf-8"?>
<!-- Generator: Adobe Illustrator 16.2.1, SVG Export Plug-In . SVG Version: 6.00 Build 0)  -->
<!DOCTYPE svg PUBLIC "-//W3C//DTD SVG 1.1//EN" "http://www.w3.org/Graphics/SVG/1.1/DTD/svg11.dtd">
<svg version="1.1" id="Icons" xmlns="http://www.w3.org/2000/svg" xmlns:xlink="http://www.w3.org/1999/xlink" x="0px" y="0px"
	 width="128px" height="128px" viewBox="0 0 128 128" enable-background="new 0 0 128 128" xml:space="preserve">
<g>
	<path fill="#414F59" d="M46,16H18c-1.1,0-2,0.9-2,2v28c0,1.1,0.637,1.363,1.414,0.586l10.814-10.814l10.584,10.582l7.542-7.541
		L35.771,28.229l10.814-10.814C47.363,16.637,47.1,16,46,16z"/>
	<path fill="#414F59" d="M110,16H82c-1.1,0-1.363,0.637-0.586,1.414l10.814,10.814l-10.38,10.381l7.543,7.541l10.38-10.379
		l10.814,10.814C111.363,47.363,112,47.1,112,46V18C112,16.9,111.1,16,110,16z"/>
	<path fill="#414F59" d="M35.771,99.771l11.085-11.086l-7.542-7.541L28.229,92.229L17.414,81.414C16.637,80.637,16,80.9,16,82v28
		c0,1.1,0.9,2,2,2h28c1.1,0,1.363-0.637,0.586-1.414L35.771,99.771z"/>
	<path fill="#414F59" d="M110.586,81.414L99.771,92.229L89.063,81.521l-7.543,7.543l10.708,10.707l-10.814,10.814
		C80.637,111.363,80.9,112,82,112h28c1.1,0,2-0.9,2-2V82C112,80.9,111.363,80.637,110.586,81.414z"/>
</g>
</svg>
