<?xml version="1.0" encoding="utf-8"?>
<!-- Generator: Adobe Illustrator 16.2.1, SVG Export Plug-In . SVG Version: 6.00 Build 0)  -->
<!DOCTYPE svg PUBLIC "-//W3C//DTD SVG 1.1//EN" "http://www.w3.org/Graphics/SVG/1.1/DTD/svg11.dtd">
<svg version="1.1" id="Icons" xmlns="http://www.w3.org/2000/svg" xmlns:xlink="http://www.w3.org/1999/xlink" x="0px" y="0px"
	 width="128px" height="128px" viewBox="0 0 128 128" enable-background="new 0 0 128 128" xml:space="preserve">
<g>
	<path fill="#414F59" d="M46.586,17.414L35.771,28.229L25.188,17.646l-7.543,7.543l10.583,10.583L17.414,46.586
		C16.637,47.364,16.9,48,18,48h28c1.1,0,2-0.899,2-2V18C48,16.9,47.363,16.637,46.586,17.414z"/>
	<path fill="#414F59" d="M82,48h28c1.1,0,1.363-0.636,0.586-1.414L99.771,35.771l10.379-10.38l-7.542-7.542l-10.38,10.38
		L81.414,17.414C80.637,16.637,80,16.9,80,18v28C80,47.101,80.9,48,82,48z"/>
	<path fill="#414F59" d="M46,80H18c-1.1,0-1.363,0.637-0.586,1.414l10.814,10.814l-11.085,11.085l7.542,7.543l11.086-11.085
		l10.814,10.814C47.363,111.363,48,111.1,48,110V82C48,80.9,47.1,80,46,80z"/>
	<path fill="#414F59" d="M110,80H82c-1.1,0-2,0.9-2,2v28c0,1.1,0.637,1.363,1.414,0.586l10.814-10.814l10.707,10.707l7.543-7.542
		L99.771,92.229l10.814-10.814C111.363,80.637,111.1,80,110,80z"/>
</g>
</svg>
