<?xml version="1.0" encoding="utf-8"?>
<!-- Generator: Adobe Illustrator 16.2.1, SVG Export Plug-In . SVG Version: 6.00 Build 0)  -->
<!DOCTYPE svg PUBLIC "-//W3C//DTD SVG 1.1//EN" "http://www.w3.org/Graphics/SVG/1.1/DTD/svg11.dtd">
<svg version="1.1" id="Icons" xmlns="http://www.w3.org/2000/svg" xmlns:xlink="http://www.w3.org/1999/xlink" x="0px" y="0px"
	 width="128px" height="128px" viewBox="0 0 128 128" enable-background="new 0 0 128 128" xml:space="preserve">
<g>
	<path fill="#414F59" d="M77.271,63.278c-0.346,0-0.686,0.028-1.018,0.082c-0.348,1.104-0.803,2.161-1.354,3.155l-3.808-2.053
		c1.035-1.84,1.626-3.965,1.626-6.23c0-6.998-5.645-12.672-12.607-12.672c-5.643,0-10.418,3.726-12.027,8.863
		c1.016,0.468,1.963,1.056,2.824,1.748l-2.641,3.438c-1.596-1.301-3.627-2.08-5.841-2.08c-5.126,0-9.28,4.176-9.28,9.328
		s4.154,9.328,9.28,9.328h34.845c3.547,0,6.422-2.889,6.422-6.453S80.818,63.278,77.271,63.278z"/>
	<path fill="#414F59" d="M106,16H22c-3.3,0-6,2.7-6,6v84c0,3.3,2.7,6,6,6h84c3.3,0,6-2.7,6-6V22C112,18.7,109.3,16,106,16z
		 M77.271,80.527H42.427c-7.511,0-13.601-6.12-13.601-13.67s6.09-13.67,13.601-13.67c0.504,0,1.001,0.031,1.49,0.084
		c2.113-6.977,8.563-12.053,16.194-12.053c9.35,0,16.928,7.617,16.928,17.014c0,0.238-0.007,0.474-0.017,0.709
		c0.083-0.003,0.166-0.004,0.249-0.004c5.932,0,10.74,4.832,10.74,10.795C88.012,75.694,83.203,80.527,77.271,80.527z
		 M88.131,76.833c1.844-1.97,2.973-4.622,2.973-7.539c0-2.919-1.131-5.571-2.975-7.542l3.281-2.857
		c2.504,2.736,4.033,6.388,4.033,10.399c0,4.01-1.528,7.661-4.031,10.397L88.131,76.833z M97.256,84.781l-3.229-2.812
		c3.028-3.347,4.874-7.794,4.874-12.675c0-4.882-1.847-9.331-4.876-12.678l3.229-2.812c3.68,4.102,5.92,9.533,5.92,15.49
		C103.174,75.25,100.934,80.68,97.256,84.781z"/>
</g>
</svg>
