<?xml version="1.0" encoding="utf-8"?>
<!-- Generator: Adobe Illustrator 16.2.1, SVG Export Plug-In . SVG Version: 6.00 Build 0)  -->
<!DOCTYPE svg PUBLIC "-//W3C//DTD SVG 1.1//EN" "http://www.w3.org/Graphics/SVG/1.1/DTD/svg11.dtd">
<svg version="1.1" id="Icons" xmlns="http://www.w3.org/2000/svg" xmlns:xlink="http://www.w3.org/1999/xlink" x="0px" y="0px"
	 width="128px" height="128px" viewBox="0 0 128 128" enable-background="new 0 0 128 128" xml:space="preserve">
<g>
	<g>
		<path fill="#414F59" d="M83.406,57.005c-0.144,0-0.286,0.003-0.43,0.007c0.017-0.404,0.029-0.811,0.029-1.219
			c0-16.179-13.047-29.293-29.144-29.293c-13.138,0-24.243,8.739-27.881,20.752c-0.842-0.093-1.698-0.146-2.566-0.146
			C10.484,47.105,0,57.643,0,70.641s10.484,23.535,23.415,23.535h59.991c10.211,0,18.49-8.32,18.49-18.585
			S93.617,57.005,83.406,57.005z M83.406,86.7H23.415c-8.825,0-15.978-7.188-15.978-16.06c0-8.869,7.152-16.06,15.978-16.06
			c3.812,0,7.31,1.343,10.057,3.582l4.545-5.918c-1.481-1.193-3.112-2.205-4.861-3.01c2.771-8.846,10.991-15.261,20.707-15.261
			c11.987,0,21.705,9.77,21.705,21.818c0,3.898-1.018,7.557-2.8,10.726l6.556,3.534c0.948-1.712,1.731-3.531,2.33-5.433
			c0.571-0.093,1.157-0.141,1.753-0.141c6.105,0,11.057,4.975,11.057,11.111S89.512,86.7,83.406,86.7z"/>
		<path fill="#414F59" d="M117.808,48.167l-5.558,4.843c5.215,5.762,8.395,13.422,8.395,21.826c0,8.403-3.178,16.06-8.392,21.821
			l5.56,4.843C124.144,94.438,128,85.091,128,74.836C128,64.58,124.144,55.229,117.808,48.167z"/>
		<path fill="#414F59" d="M107.747,56.931l-5.648,4.921c3.173,3.392,5.12,7.959,5.12,12.984c0,5.021-1.943,9.588-5.117,12.979
			l5.648,4.921c4.31-4.711,6.941-10.997,6.941-17.9C114.691,67.93,112.058,61.643,107.747,56.931z"/>
	</g>
</g>
</svg>
