<?xml version="1.0" encoding="utf-8"?>
<!-- Generator: Adobe Illustrator 16.2.1, SVG Export Plug-In . SVG Version: 6.00 Build 0)  -->
<!DOCTYPE svg PUBLIC "-//W3C//DTD SVG 1.1//EN" "http://www.w3.org/Graphics/SVG/1.1/DTD/svg11.dtd">
<svg version="1.1" id="Icons" xmlns="http://www.w3.org/2000/svg" xmlns:xlink="http://www.w3.org/1999/xlink" x="0px" y="0px"
	 width="128px" height="128px" viewBox="0 0 128 128" enable-background="new 0 0 128 128" xml:space="preserve">
<path fill="#414F59" d="M100,8H28c-2.2,0-4,1.8-4,4v104c0,2.2,1.8,4,4,4h72c2.2,0,4-1.8,4-4V12C104,9.8,102.2,8,100,8z M64,112
	c-4.418,0-8-3.581-8-8c0-4.418,3.582-8,8-8s8,3.582,8,8C72,108.419,68.418,112,64,112z M94,86H34V18h60V86z"/>
</svg>
