<?xml version="1.0" encoding="utf-8"?>
<!-- Generator: Adobe Illustrator 16.2.1, SVG Export Plug-In . SVG Version: 6.00 Build 0)  -->
<!DOCTYPE svg PUBLIC "-//W3C//DTD SVG 1.1//EN" "http://www.w3.org/Graphics/SVG/1.1/DTD/svg11.dtd">
<svg version="1.1" id="Icons" xmlns="http://www.w3.org/2000/svg" xmlns:xlink="http://www.w3.org/1999/xlink" x="0px" y="0px"
	 width="128px" height="128px" viewBox="0 0 128 128" enable-background="new 0 0 128 128" xml:space="preserve">
<g>
	<path fill="#414F59" d="M117.5,16h-35c-1.375,0-1.705,0.795-0.732,1.768l13.518,13.518L82.311,44.261l9.429,9.427l12.975-12.975
		l13.519,13.519C119.205,55.205,120,54.875,120,53.5v-35C120,17.125,118.875,16,117.5,16z"/>
	<path fill="#414F59" d="M104,96H24V32h40V16H16c-4.418,0-8,3.582-8,8v80c0,4.418,3.582,8,8,8h96c4.418,0,8-3.582,8-8V72h-16V96z"/>
</g>
</svg>
