<?xml version="1.0" encoding="utf-8"?>
<!-- Generator: Adobe Illustrator 16.2.1, SVG Export Plug-In . SVG Version: 6.00 Build 0)  -->
<!DOCTYPE svg PUBLIC "-//W3C//DTD SVG 1.1//EN" "http://www.w3.org/Graphics/SVG/1.1/DTD/svg11.dtd">
<svg version="1.1" id="Icons" xmlns="http://www.w3.org/2000/svg" xmlns:xlink="http://www.w3.org/1999/xlink" x="0px" y="0px"
	 width="128px" height="128px" viewBox="0 0 128 128" enable-background="new 0 0 128 128" xml:space="preserve">
<path fill="#414F59" d="M64,8c-30.929,0-56,25.073-56,56.001c0,30.928,25.072,56,56,56c30.929,0,56-25.072,56-56
	C120,33.073,94.929,8,64,8z M59.999,82.001c0,3.3-2.7,6-6,6s-6-2.7-6-6v-36c0-3.3,2.7-6,6-6s6,2.7,6,6V82.001z M79.999,82.001
	c0,3.3-2.7,6-6,6s-6-2.7-6-6v-36c0-3.3,2.7-6,6-6s6,2.7,6,6V82.001z"/>
</svg>
