<?xml version="1.0" encoding="utf-8"?>
<!-- Generator: Adobe Illustrator 16.2.1, SVG Export Plug-In . SVG Version: 6.00 Build 0)  -->
<!DOCTYPE svg PUBLIC "-//W3C//DTD SVG 1.1//EN" "http://www.w3.org/Graphics/SVG/1.1/DTD/svg11.dtd">
<svg version="1.1" id="Icons" xmlns="http://www.w3.org/2000/svg" xmlns:xlink="http://www.w3.org/1999/xlink" x="0px" y="0px"
	 width="128px" height="128px" viewBox="0 0 128 128" enable-background="new 0 0 128 128" xml:space="preserve">
<path fill="#414F59" d="M72.641,88.939c-6.945,0-13.48-3.746-15.715-8.012c0,0-3.74,14.82-4.525,17.678
	c-2.789,10.111-10.986,20.229-11.615,21.055c-0.444,0.574-1.429,0.396-1.531-0.369c-0.178-1.285-2.271-14.041,0.191-24.445
	c1.237-5.223,8.279-35.055,8.279-35.055s-2.059-4.108-2.059-10.179c0-9.537,5.531-16.652,12.414-16.652
	c5.852,0,8.668,4.391,8.668,9.658c0,5.883-3.737,14.678-5.674,22.826c-1.613,6.826,3.418,12.395,10.153,12.395
	c12.188,0,20.398-15.655,20.398-34.205c0-14.099-9.496-24.654-26.77-24.654c-19.512,0-31.674,14.555-31.674,30.811
	c0,5.605,1.654,9.559,4.246,12.615c1.189,1.409,1.354,1.973,0.923,3.585c-0.314,1.188-1.013,4.037-1.313,5.166
	c-0.424,1.631-1.75,2.211-3.219,1.609c-8.99-3.668-13.174-13.513-13.174-24.58C20.646,29.913,36.054,8,66.625,8
	c24.563,0,40.729,17.77,40.729,36.854C107.354,70.09,93.32,88.939,72.641,88.939z"/>
</svg>
