<?xml version="1.0" encoding="utf-8"?>
<!-- Generator: Adobe Illustrator 16.2.1, SVG Export Plug-In . SVG Version: 6.00 Build 0)  -->
<!DOCTYPE svg PUBLIC "-//W3C//DTD SVG 1.1//EN" "http://www.w3.org/Graphics/SVG/1.1/DTD/svg11.dtd">
<svg version="1.1" id="Icons" xmlns="http://www.w3.org/2000/svg" xmlns:xlink="http://www.w3.org/1999/xlink" x="0px" y="0px"
	 width="128px" height="128px" viewBox="0 0 128 128" enable-background="new 0 0 128 128" xml:space="preserve">
<path fill="#414F59" d="M106,16H22c-3.3,0-6,2.7-6,6v84c0,3.3,2.7,6,6,6h84c3.3,0,6-2.7,6-6V22C112,18.7,109.3,16,106,16z
	 M69.783,76.469c-3.473,0-6.74-1.873-7.857-4.006c0,0-1.87,7.41-2.263,8.839c-1.395,5.056-5.493,10.114-5.808,10.527
	c-0.222,0.287-0.714,0.198-0.766-0.185c-0.089-0.643-1.135-7.021,0.096-12.223c0.619-2.611,4.14-17.527,4.14-17.527
	s-1.029-2.055-1.029-5.09c0-4.768,2.766-8.326,6.207-8.326c2.926,0,4.334,2.196,4.334,4.83c0,2.941-1.869,7.338-2.837,11.412
	c-0.807,3.413,1.709,6.197,5.076,6.197c6.094,0,10.199-7.827,10.199-17.102c0-7.05-4.748-12.327-13.385-12.327
	c-9.755,0-15.836,7.276-15.836,15.405c0,2.803,0.827,4.779,2.123,6.308c0.595,0.704,0.677,0.985,0.461,1.792
	c-0.157,0.594-0.506,2.019-0.656,2.583c-0.212,0.815-0.875,1.105-1.609,0.805c-4.495-1.834-6.587-6.756-6.587-12.289
	C43.786,46.956,51.49,36,66.775,36c12.281,0,20.364,8.885,20.364,18.426C87.14,67.044,80.123,76.469,69.783,76.469z"/>
</svg>
