<?xml version="1.0" encoding="utf-8"?>
<!-- Generator: Adobe Illustrator 16.2.1, SVG Export Plug-In . SVG Version: 6.00 Build 0)  -->
<!DOCTYPE svg PUBLIC "-//W3C//DTD SVG 1.1//EN" "http://www.w3.org/Graphics/SVG/1.1/DTD/svg11.dtd">
<svg version="1.1" id="Icons" xmlns="http://www.w3.org/2000/svg" xmlns:xlink="http://www.w3.org/1999/xlink" x="0px" y="0px"
	 width="128px" height="128px" viewBox="0 0 128 128" enable-background="new 0 0 128 128" xml:space="preserve">
<g>
	<path fill="#414F59" d="M32,116c0,2.199,1.8,4,4,4h56c2.2,0,4-1.801,4-4V88H32V116z"/>
	<path fill="#414F59" d="M112,48H16c-2.2,0-4,1.8-4,4v56c0,2.199,1.8,4,4,4h8V80h80v32h8c2.2,0,4-1.801,4-4V52
		C116,49.799,114.2,48,112,48z M104,64H88v-8h16V64z"/>
	<path fill="#414F59" d="M96,24L80,8H36c-2.2,0-4,1.8-4,4v28h64V24z"/>
</g>
</svg>
