<?xml version="1.0" encoding="utf-8"?>
<!-- Generator: Adobe Illustrator 16.2.1, SVG Export Plug-In . SVG Version: 6.00 Build 0)  -->
<!DOCTYPE svg PUBLIC "-//W3C//DTD SVG 1.1//EN" "http://www.w3.org/Graphics/SVG/1.1/DTD/svg11.dtd">
<svg version="1.1" id="Icons" xmlns="http://www.w3.org/2000/svg" xmlns:xlink="http://www.w3.org/1999/xlink" x="0px" y="0px"
	 width="128px" height="128px" viewBox="0 0 128 128" enable-background="new 0 0 128 128" xml:space="preserve">
<g>
	<path fill="#414F59" d="M10.426,55.394l27.148-6.787C38.908,48.273,39.1,47.325,38,46.5l-6.933-5.199
		C38.495,30.565,50.863,24,64,24c22.056,0,39.999,17.944,40,40h16C119.999,33.122,94.877,8,64,8
		c-18.18,0-35.307,8.979-45.738,23.697L10,25.5c-1.1-0.825-2-0.375-2,1v27C8,54.875,9.092,55.727,10.426,55.394z"/>
	<path fill="#414F59" d="M117.574,72.607l-27.148,6.787C89.092,79.728,88.9,80.676,90,81.5l6.933,5.199
		C89.505,97.436,77.137,104,64,104c-22.056,0-39.999-17.943-40-40L8,64.001C8.001,94.879,33.123,120,64,120
		c18.18,0,35.307-8.979,45.738-23.696L118,102.5c1.1,0.825,2,0.375,2-1v-27C120,73.125,118.908,72.273,117.574,72.607z"/>
</g>
</svg>
