<?xml version="1.0" encoding="utf-8"?>
<!-- Generator: Adobe Illustrator 16.2.1, SVG Export Plug-In . SVG Version: 6.00 Build 0)  -->
<!DOCTYPE svg PUBLIC "-//W3C//DTD SVG 1.1//EN" "http://www.w3.org/Graphics/SVG/1.1/DTD/svg11.dtd">
<svg version="1.1" id="Icons" xmlns="http://www.w3.org/2000/svg" xmlns:xlink="http://www.w3.org/1999/xlink" x="0px" y="0px"
	 width="128px" height="128px" viewBox="0 0 128 128" enable-background="new 0 0 128 128" xml:space="preserve">
<path fill="#414F59" d="M64,40V24c0-1.498-0.838-2.871-2.17-3.557C61.254,20.146,60.627,20,60,20c-0.818,0-1.634,0.251-2.325,0.745
	l-56,40C0.625,61.496,0,62.708,0,64s0.625,2.504,1.675,3.255l56,40C58.366,107.749,59.182,108,60,108
	c0.627,0,1.254-0.146,1.83-0.443C63.162,106.871,64,105.498,64,104V88c34.084,0,53.714,6.667,64,16C128,73.072,98.084,40,64,40z"/>
</svg>
