<?xml version="1.0" encoding="utf-8"?>
<!-- Generator: Adobe Illustrator 16.2.1, SVG Export Plug-In . SVG Version: 6.00 Build 0)  -->
<!DOCTYPE svg PUBLIC "-//W3C//DTD SVG 1.1//EN" "http://www.w3.org/Graphics/SVG/1.1/DTD/svg11.dtd">
<svg version="1.1" id="Icons" xmlns="http://www.w3.org/2000/svg" xmlns:xlink="http://www.w3.org/1999/xlink" x="0px" y="0px"
	 width="128px" height="128px" viewBox="0 0 128 128" enable-background="new 0 0 128 128" xml:space="preserve">
<g>
	<path fill="#414F59" d="M32,56h12c1.553,0,2.965-0.898,3.623-2.303C47.877,53.156,48,52.578,48,52.002
		c0-0.919-0.316-1.829-0.928-2.562l-20-24C26.312,24.527,25.188,24,24,24s-2.312,0.527-3.072,1.439l-20,24
		C0.316,50.173,0,51.083,0,52.002c0,0.576,0.123,1.154,0.377,1.695C1.035,55.102,2.447,56,4,56h12v40c0,4.418,3.582,8,8,8h48V88H32
		V56z"/>
	<path fill="#414F59" d="M127.623,74.303C126.965,72.898,125.553,72,124,72h-12V32c0-4.418-3.582-8-8-8H56v16h40v32H84
		c-1.553,0-2.965,0.898-3.623,2.303C80.123,74.844,80,75.422,80,75.998c0,0.919,0.316,1.829,0.928,2.562l20,24
		c0.76,0.912,1.885,1.439,3.072,1.439s2.312-0.527,3.072-1.439l20-24c0.611-0.733,0.928-1.644,0.928-2.562
		C128,75.422,127.877,74.844,127.623,74.303z"/>
</g>
</svg>
