<?xml version="1.0" encoding="utf-8"?>
<!-- Generator: Adobe Illustrator 16.2.1, SVG Export Plug-In . SVG Version: 6.00 Build 0)  -->
<!DOCTYPE svg PUBLIC "-//W3C//DTD SVG 1.1//EN" "http://www.w3.org/Graphics/SVG/1.1/DTD/svg11.dtd">
<svg version="1.1" id="Icons" xmlns="http://www.w3.org/2000/svg" xmlns:xlink="http://www.w3.org/1999/xlink" x="0px" y="0px"
	 width="128px" height="128px" viewBox="0 0 128 128" enable-background="new 0 0 128 128" xml:space="preserve">
<path fill="#414F59" d="M28.789,111.896c-7.064,0-12.789-5.707-12.789-12.75s5.725-12.746,12.789-12.746
	c7.072,0,12.803,5.703,12.803,12.746S35.861,111.896,28.789,111.896z M60.899,111.978c0-12.03-4.677-23.328-13.159-31.812
	c-8.467-8.484-19.738-13.148-31.729-13.148V48.62c34.934,0,63.361,28.424,63.361,63.357H60.899z M93.527,112.001
	c0-42.791-34.758-77.603-77.485-77.603V16C68.955,16,112,59.062,112,112.001H93.527z"/>
</svg>
