<?xml version="1.0" encoding="utf-8"?>
<!-- Generator: Adobe Illustrator 16.2.1, SVG Export Plug-In . SVG Version: 6.00 Build 0)  -->
<!DOCTYPE svg PUBLIC "-//W3C//DTD SVG 1.1//EN" "http://www.w3.org/Graphics/SVG/1.1/DTD/svg11.dtd">
<svg version="1.1" id="Icons" xmlns="http://www.w3.org/2000/svg" xmlns:xlink="http://www.w3.org/1999/xlink" x="0px" y="0px"
	 width="128px" height="128px" viewBox="0 0 128 128" enable-background="new 0 0 128 128" xml:space="preserve">
<path fill="#414F59" d="M117.656,111.999L112,117.656c-1.5,1.501-3.535,2.344-5.656,2.344c-2.123,0-4.158-0.843-5.658-2.343
	L80.375,97.347C73.23,101.568,64.9,104,56,104C29.49,104,8,82.51,8,56S29.49,8,56,8s48,21.49,48,48
	c0,8.901-2.432,17.23-6.652,24.376l20.309,20.31C120.781,103.81,120.781,108.875,117.656,111.999z M56,88c17.672,0,32-14.327,32-32
	S73.672,24,56,24c-17.674,0-32,14.327-32,32S38.326,88,56,88z"/>
</svg>
