<?xml version="1.0" encoding="utf-8"?>
<!-- Generator: Adobe Illustrator 16.2.1, SVG Export Plug-In . SVG Version: 6.00 Build 0)  -->
<!DOCTYPE svg PUBLIC "-//W3C//DTD SVG 1.1//EN" "http://www.w3.org/Graphics/SVG/1.1/DTD/svg11.dtd">
<svg version="1.1" id="Icons" xmlns="http://www.w3.org/2000/svg" xmlns:xlink="http://www.w3.org/1999/xlink" x="0px" y="0px"
	 width="128px" height="128px" viewBox="0 0 128 128" enable-background="new 0 0 128 128" xml:space="preserve">
<path fill="#414F59" d="M99,78c-5.662,0-10.797,2.244-14.572,5.888L49.834,66.591C49.94,65.741,50,64.878,50,64
	s-0.06-1.741-0.166-2.591l34.594-17.297C88.203,47.756,93.338,50,99,50c11.598,0,21-9.402,21-21S110.598,8,99,8
	c-11.599,0-21,9.402-21,21c0,0.878,0.06,1.741,0.165,2.591L43.572,48.888C39.796,45.245,34.662,43,29,43C17.401,43,8,52.402,8,64
	c0,11.598,9.401,21,21,21c5.662,0,10.796-2.244,14.572-5.888l34.593,17.297C78.06,97.259,78,98.121,78,99c0,11.598,9.401,21,21,21
	c11.598,0,21-9.402,21-21S110.598,78,99,78z"/>
</svg>
