<?xml version="1.0" encoding="utf-8"?>
<!-- Generator: Adobe Illustrator 16.2.1, SVG Export Plug-In . SVG Version: 6.00 Build 0)  -->
<!DOCTYPE svg PUBLIC "-//W3C//DTD SVG 1.1//EN" "http://www.w3.org/Graphics/SVG/1.1/DTD/svg11.dtd">
<svg version="1.1" id="Icons" xmlns="http://www.w3.org/2000/svg" xmlns:xlink="http://www.w3.org/1999/xlink" x="0px" y="0px"
	 width="128px" height="128px" viewBox="0 0 128 128" enable-background="new 0 0 128 128" xml:space="preserve">
<g id="_x35_151e0c8492e5103c096af88a50061c5">
	<path fill="#414F59" d="M6.18,89.008c0.27,0,0.488-0.214,0.531-0.521L8.143,77.16L6.711,65.581c-0.043-0.308-0.262-0.52-0.531-0.52
		c-0.273,0-0.496,0.216-0.531,0.52c0,0.002-1.26,11.579-1.26,11.579l1.26,11.324C5.684,88.786,5.907,89.008,6.18,89.008z
		 M1.961,84.201c0,0,0,0,0,0.002l0,0V84.201z M1.446,84.703c0.261,0,0.47-0.205,0.515-0.5l1.106-7.042l-1.106-7.165
		c-0.043-0.295-0.254-0.5-0.515-0.5c-0.267,0-0.475,0.206-0.513,0.503L0,77.16l0.934,7.039C0.972,84.497,1.18,84.703,1.446,84.703z
		 M11.85,63.422c-0.039-0.366-0.309-0.633-0.641-0.633c-0.339,0-0.607,0.269-0.643,0.633l-1.193,13.74l1.193,13.236
		c0.035,0.369,0.304,0.633,0.643,0.633c0.332,0,0.602-0.264,0.639-0.629l1.359-13.24L11.85,63.422z M16.278,91.564
		c0.394,0,0.714-0.32,0.752-0.742l0,0l1.282-13.658L17.03,63.047c-0.038-0.424-0.358-0.744-0.752-0.744
		c-0.396,0-0.72,0.321-0.751,0.746l-1.131,14.115l1.131,13.658C15.559,91.244,15.883,91.564,16.278,91.564z M21.389,91.789
		c0.458,0,0.827-0.368,0.861-0.854l-0.002,0.002l1.209-13.771l-1.209-13.1c-0.032-0.483-0.401-0.851-0.859-0.851
		c-0.46,0-0.83,0.367-0.858,0.854l-1.065,13.096l1.065,13.769C20.559,91.421,20.929,91.789,21.389,91.789z M28.643,77.172
		l-1.134-21.307c-0.028-0.543-0.454-0.967-0.968-0.967s-0.943,0.424-0.968,0.967L24.57,77.172l1.003,13.769
		c0.024,0.535,0.454,0.962,0.968,0.962s0.939-0.427,0.968-0.966v0.004L28.643,77.172z M31.735,91.928
		c0.577,0,1.049-0.471,1.077-1.076v0.01l1.059-13.688l-1.059-26.178c-0.028-0.604-0.5-1.078-1.077-1.078
		c-0.58,0-1.056,0.474-1.08,1.078c0,0.002-0.936,26.178-0.936,26.178l0.938,13.684C30.68,91.457,31.155,91.928,31.735,91.928z
		 M36.969,47.626c-0.645,0-1.165,0.521-1.188,1.188c0,0.002-0.87,28.363-0.87,28.363l0.871,13.542c0.021,0.66,0.543,1.18,1.188,1.18
		c0.641,0,1.164-0.52,1.188-1.186v0.01l0.984-13.546l-0.984-28.365C38.132,48.146,37.609,47.626,36.969,47.626z M42.246,91.926
		c0.704,0,1.273-0.57,1.297-1.297v0.01l0.906-13.46l-0.906-29.319c-0.023-0.729-0.593-1.299-1.297-1.299
		c-0.707,0-1.277,0.571-1.298,1.299l-0.808,29.319l0.808,13.457C40.969,91.355,41.539,91.926,42.246,91.926z M47.562,91.913
		c0.768,0,1.386-0.618,1.405-1.409v0.01l0.836-13.334l-0.836-28.572c-0.02-0.789-0.638-1.407-1.405-1.407
		c-0.77,0-1.39,0.62-1.407,1.407L45.414,77.18l0.742,13.33C46.173,91.295,46.793,91.913,47.562,91.913z M55.195,77.184l-0.76-27.532
		c-0.018-0.85-0.684-1.518-1.514-1.518c-0.834,0-1.5,0.668-1.517,1.52l-0.677,27.529l0.677,13.245
		c0.017,0.844,0.683,1.511,1.517,1.511c0.83,0,1.496-0.667,1.514-1.521v0.012L55.195,77.184z M58.321,91.966
		c0.88,0,1.608-0.731,1.624-1.632v0.011l0.685-13.159l-0.685-32.76c-0.016-0.897-0.744-1.629-1.624-1.629
		c-0.882,0-1.61,0.731-1.625,1.629l-0.612,32.75c0,0.02,0.612,13.167,0.612,13.167C56.711,91.234,57.439,91.966,58.321,91.966z
		 M63.696,39.717c-0.944,0-1.722,0.784-1.735,1.743l-0.709,35.729l0.709,12.967c0.014,0.946,0.791,1.729,1.735,1.729
		c0.942,0,1.72-0.782,1.733-1.741v0.015l0.771-12.968L65.43,41.459C65.416,40.501,64.639,39.717,63.696,39.717z M68.615,91.975
		C68.655,91.979,111.975,92,112.258,92C120.953,92,128,84.897,128,76.137c0-8.76-7.047-15.859-15.742-15.859
		c-2.16,0-4.215,0.439-6.09,1.23C104.916,47.215,93.014,36,78.502,36c-3.553,0-7.014,0.705-10.072,1.897
		c-1.188,0.463-1.505,0.941-1.516,1.863c0,0.002,0,50.339,0,50.339C66.927,91.071,67.675,91.881,68.615,91.975z"/>
</g>
</svg>
