<?xml version="1.0" encoding="utf-8"?>
<!-- Generator: Adobe Illustrator 16.2.1, SVG Export Plug-In . SVG Version: 6.00 Build 0)  -->
<!DOCTYPE svg PUBLIC "-//W3C//DTD SVG 1.1//EN" "http://www.w3.org/Graphics/SVG/1.1/DTD/svg11.dtd">
<svg version="1.1" id="Icons" xmlns="http://www.w3.org/2000/svg" xmlns:xlink="http://www.w3.org/1999/xlink" x="0px" y="0px"
	 width="128px" height="128px" viewBox="0 0 128 128" enable-background="new 0 0 128 128" xml:space="preserve">
<path fill="#414F59" d="M106,16H22c-3.3,0-6,2.7-6,6v84c0,3.3,2.7,6,6,6h84c3.3,0,6-2.7,6-6V22C112,18.7,109.3,16,106,16z
	 M19.41,74.431c-0.033,0.211-0.183,0.357-0.37,0.357c-0.191,0-0.341-0.147-0.369-0.36L18,69.4l0.671-5.115
	c0.028-0.212,0.177-0.359,0.369-0.359c0.188,0,0.339,0.146,0.37,0.357l0.795,5.117L19.41,74.431z M22.823,77.49
	c-0.03,0.22-0.188,0.373-0.382,0.373c-0.195,0-0.356-0.158-0.381-0.375L21.154,69.4c0,0,0.906-8.27,0.906-8.271
	c0.025-0.217,0.185-0.371,0.381-0.371c0.194,0,0.352,0.152,0.382,0.371l1.029,8.271L22.823,77.49z M26.516,78.859
	c-0.027,0.26-0.221,0.449-0.459,0.449c-0.244,0-0.437-0.189-0.462-0.453l-0.857-9.454l0.857-9.814
	c0.025-0.26,0.218-0.452,0.462-0.452c0.238,0,0.432,0.191,0.46,0.452l0.976,9.814L26.516,78.859z M30.241,79.158
	c-0.028,0.302-0.258,0.531-0.541,0.531c-0.284,0-0.518-0.229-0.54-0.531l-0.813-9.756l0.813-10.082
	c0.022-0.303,0.255-0.533,0.54-0.533c0.283,0,0.513,0.229,0.541,0.532l0.921,10.083L30.241,79.158z M33.992,79.239
	c-0.024,0.347-0.29,0.61-0.619,0.61c-0.331,0-0.596-0.264-0.617-0.61l-0.766-9.835l0.766-9.354c0.021-0.349,0.286-0.611,0.617-0.611
	c0.33,0,0.595,0.263,0.618,0.607l0.869,9.357l-0.869,9.836L33.992,79.239z M37.772,79.243V79.24
	c-0.021,0.385-0.327,0.689-0.696,0.689c-0.369,0-0.678-0.305-0.696-0.687l-0.721-9.835l0.721-15.219
	c0.018-0.388,0.327-0.69,0.696-0.69c0.369,0,0.675,0.303,0.696,0.69l0.814,15.219L37.772,79.243z M41.584,79.187V79.18
	c-0.02,0.433-0.359,0.769-0.774,0.769c-0.417,0-0.759-0.336-0.775-0.765l-0.673-9.773c0,0,0.672-18.697,0.672-18.699
	c0.017-0.432,0.359-0.77,0.776-0.77c0.415,0,0.754,0.338,0.774,0.77l0.761,18.699L41.584,79.187z M45.425,79.088V79.08
	c-0.017,0.477-0.393,0.848-0.854,0.848c-0.463,0-0.838-0.371-0.854-0.843l-0.626-9.673c0,0,0.625-20.258,0.625-20.26
	c0.017-0.476,0.391-0.848,0.854-0.848c0.46,0,0.836,0.371,0.854,0.847l0.708,20.261L45.425,79.088z M49.296,79.027v-0.007
	c-0.017,0.519-0.426,0.927-0.932,0.927c-0.508,0-0.918-0.408-0.933-0.922l-0.581-9.611l0.581-20.943
	c0.015-0.52,0.425-0.928,0.933-0.928c0.506,0,0.916,0.408,0.932,0.928l0.651,20.943L49.296,79.027z M53.195,78.938v-0.007
	c-0.014,0.564-0.458,1.006-1.01,1.006c-0.553,0-0.998-0.441-1.011-1.002l-0.533-9.521l0.532-20.408
	C51.188,48.443,51.633,48,52.186,48c0.552,0,0.996,0.441,1.01,1.006l0.602,20.408L53.195,78.938z M57.126,78.879V78.87
	c-0.013,0.609-0.491,1.086-1.089,1.086c-0.6,0-1.078-0.477-1.09-1.079l-0.486-9.461l0.486-19.664c0.012-0.607,0.49-1.085,1.09-1.085
	c0.598,0,1.076,0.478,1.089,1.084l0.546,19.666L57.126,78.879z M61.086,78.818v-0.008c-0.012,0.643-0.535,1.165-1.168,1.165
	s-1.157-0.522-1.168-1.159c0,0-0.439-9.391-0.439-9.405l0.439-23.393c0.011-0.642,0.535-1.163,1.168-1.163s1.156,0.521,1.168,1.163
	l0.492,23.399L61.086,78.818z M65.027,78.685v-0.011c-0.01,0.686-0.568,1.244-1.246,1.244s-1.237-0.559-1.247-1.234l-0.509-9.263
	L62.534,43.9c0.01-0.686,0.569-1.246,1.247-1.246s1.236,0.561,1.246,1.245l0.555,25.522L65.027,78.685z M98.686,80
	c-0.204,0-31.34-0.016-31.368-0.018c-0.676-0.067-1.214-0.646-1.223-1.34V42.687c0.008-0.659,0.235-1.001,1.089-1.331
	C69.382,40.504,71.869,40,74.423,40c10.431,0,18.985,8.011,19.886,18.22c1.348-0.565,2.824-0.879,4.377-0.879
	c6.25,0,11.314,5.071,11.314,11.328C110,74.927,104.936,80,98.686,80z"/>
</svg>
