<?xml version="1.0" encoding="utf-8"?>
<!-- Generator: Adobe Illustrator 16.2.1, SVG Export Plug-In . SVG Version: 6.00 Build 0)  -->
<!DOCTYPE svg PUBLIC "-//W3C//DTD SVG 1.1//EN" "http://www.w3.org/Graphics/SVG/1.1/DTD/svg11.dtd">
<svg version="1.1" id="Icons" xmlns="http://www.w3.org/2000/svg" xmlns:xlink="http://www.w3.org/1999/xlink" x="0px" y="0px"
	 width="128px" height="128px" viewBox="0 0 128 128" enable-background="new 0 0 128 128" xml:space="preserve">
<path fill="#414F59" d="M119.656,51.335c-0.813-2.503-2.965-4.339-5.564-4.75l-29.598-4.673L70.326,12.003
	C69.168,9.559,66.705,8,64,8s-5.168,1.559-6.327,4.003L43.506,41.912l-29.598,4.673c-2.602,0.411-4.751,2.247-5.564,4.75
	C8.112,52.046,8,52.776,8,53.5c0,1.828,0.716,3.616,2.051,4.95l21.851,21.851l-6.267,31.327c-0.534,2.675,0.534,5.417,2.738,7.026
	c1.224,0.893,2.673,1.346,4.129,1.346c1.165,0,2.336-0.291,3.397-0.881L64,103.508l28.101,15.611
	c1.062,0.59,2.232,0.881,3.399,0.881c1.454,0,2.903-0.453,4.127-1.346c2.203-1.609,3.271-4.352,2.737-7.026l-6.267-31.327
	l21.852-21.851c1.335-1.334,2.051-3.123,2.051-4.95C120,52.776,119.887,52.046,119.656,51.335z"/>
</svg>
