<?xml version="1.0" encoding="utf-8"?>
<!-- Generator: Adobe Illustrator 19.0.0, SVG Export Plug-In . SVG Version: 6.00 Build 0)  -->
<svg version="1.1" id="Icons" xmlns="http://www.w3.org/2000/svg" xmlns:xlink="http://www.w3.org/1999/xlink" x="0px" y="0px"
	 viewBox="0 0 128 128" style="enable-background:new 0 0 128 128;" xml:space="preserve">
<style type="text/css">
	.st0{fill:#414F59;}
</style>
<path class="st0" d="M107.9,16H20.1c-2.2,0-4.1,1.8-4.1,4v12l29.7,29.2c1.6,1.6,1.6,4.1,0,5.7L16,96v12c0,2.2,1.8,4,4.1,4h87.9
	c2.2,0,4.1-1.8,4.1-4V84c0-2.2-1.8-4-4.1-4h-8.1c-2.2,0-4.1,1.8-4.1,4v12H40.4l29.7-29.2c1.6-1.6,1.6-4.1,0-5.7L40.4,32h55.3v12
	c0,2.2,1.8,4,4.1,4h8.1c2.2,0,4.1-1.8,4.1-4V20C112,17.8,110.2,16,107.9,16z"/>
</svg>
