<?xml version="1.0" encoding="utf-8"?>
<!-- Generator: Adobe Illustrator 16.2.1, SVG Export Plug-In . SVG Version: 6.00 Build 0)  -->
<!DOCTYPE svg PUBLIC "-//W3C//DTD SVG 1.1//EN" "http://www.w3.org/Graphics/SVG/1.1/DTD/svg11.dtd">
<svg version="1.1" id="Icons" xmlns="http://www.w3.org/2000/svg" xmlns:xlink="http://www.w3.org/1999/xlink" x="0px" y="0px"
	 width="128px" height="128px" viewBox="0 0 128 128" enable-background="new 0 0 128 128" xml:space="preserve">
<path fill="#414F59" d="M116.836,61.009L66.646,10.82C65.096,9.269,62.033,8,59.839,8H11.988C9.794,8,8,9.794,8,11.988v47.853
	c0,2.193,1.269,5.257,2.819,6.808l50.188,50.189c1.551,1.55,4.088,1.55,5.639,0l50.189-50.189
	C118.387,65.098,118.387,62.56,116.836,61.009z M31.926,39.902c-4.404,0-7.976-3.57-7.976-7.976c0-4.405,3.571-7.975,7.976-7.975
	s7.976,3.57,7.976,7.975C39.902,36.332,36.331,39.902,31.926,39.902z"/>
</svg>
