<?xml version="1.0" encoding="utf-8"?>
<!-- Generator: Adobe Illustrator 16.2.1, SVG Export Plug-In . SVG Version: 6.00 Build 0)  -->
<!DOCTYPE svg PUBLIC "-//W3C//DTD SVG 1.1//EN" "http://www.w3.org/Graphics/SVG/1.1/DTD/svg11.dtd">
<svg version="1.1" id="Icons" xmlns="http://www.w3.org/2000/svg" xmlns:xlink="http://www.w3.org/1999/xlink" x="0px" y="0px"
	 width="128px" height="128px" viewBox="0 0 128 128" enable-background="new 0 0 128 128" xml:space="preserve">
<path fill="#414F59" d="M36,113H8V50h28V113z M113,53.5c-3.938-0.875-23.516-3.062-35-3.5c7-10.5,7-35,7-35c0-3.5-3.062-7-7-7
	c-4.02,0-5.592,0.807-6.891,1.641C67.5,22,63.344,32.609,60.5,36S43,50,43,50v56c5.359,3.5,38.938,14,56,14
	c6.344,0,12.774-3.646,14-7c2.078-5.688,7-35.438,7-52.5C120,57.766,116.938,54.375,113,53.5z"/>
</svg>
