<?xml version="1.0" encoding="utf-8"?>
<!-- Generator: Adobe Illustrator 16.2.1, SVG Export Plug-In . SVG Version: 6.00 Build 0)  -->
<!DOCTYPE svg PUBLIC "-//W3C//DTD SVG 1.1//EN" "http://www.w3.org/Graphics/SVG/1.1/DTD/svg11.dtd">
<svg version="1.1" id="Icons" xmlns="http://www.w3.org/2000/svg" xmlns:xlink="http://www.w3.org/1999/xlink" x="0px" y="0px"
	 width="128px" height="128px" viewBox="0 0 128 128" enable-background="new 0 0 128 128" xml:space="preserve">
<path fill="#414F59" d="M92,15h28v63H92V15z M15,74.5c3.938,0.875,23.516,3.062,35,3.5c-7,10.5-7,35-7,35c0,3.5,3.062,7,7,7
	c4.02,0,5.592-0.807,6.891-1.641C60.5,106,64.656,95.391,67.5,92S85,78,85,78V22C79.641,18.5,46.062,8,29,8
	c-6.344,0-12.774,3.646-14,7c-2.078,5.688-7,35.438-7,52.5C8,70.234,11.062,73.625,15,74.5z"/>
</svg>
