<?xml version="1.0" encoding="utf-8"?>
<!-- Generator: Adobe Illustrator 16.2.1, SVG Export Plug-In . SVG Version: 6.00 Build 0)  -->
<!DOCTYPE svg PUBLIC "-//W3C//DTD SVG 1.1//EN" "http://www.w3.org/Graphics/SVG/1.1/DTD/svg11.dtd">
<svg version="1.1" id="Icons" xmlns="http://www.w3.org/2000/svg" xmlns:xlink="http://www.w3.org/1999/xlink" x="0px" y="0px"
	 width="128px" height="128px" viewBox="0 0 128 128" enable-background="new 0 0 128 128" xml:space="preserve">
<g>
	<path fill="#414F59" d="M64,36c-2.209,0-4,1.791-4,4v24c0,1.516,0.856,2.9,2.211,3.578l16,8c0.574,0.287,1.185,0.423,1.786,0.423
		c1.467,0,2.88-0.811,3.581-2.212c0.987-1.977,0.187-4.379-1.789-5.367L68,61.527V40C68,37.791,66.209,36,64,36z"/>
	<path fill="#414F59" d="M64,8c-18.18,0-35.307,8.979-45.738,23.697L10,25.5c-1.1-0.825-2-0.375-2,1v27
		c0,1.375,1.092,2.227,2.426,1.894l27.148-6.787C38.908,48.273,39.1,47.325,38,46.5l-6.933-5.199C38.495,30.565,50.863,24,64,24
		c22.056,0,39.999,17.944,40,40c-0.001,22.056-17.944,40-40,40c-10.685,0-20.73-4.16-28.285-11.715S24,74.686,24,64.001L8,64
		c-0.001,14.959,5.824,29.021,16.401,39.599S49.041,120,64,120c30.877,0,55.999-25.121,56-56C119.999,33.122,94.877,8,64,8z"/>
</g>
</svg>
