<?xml version="1.0" encoding="utf-8"?>
<!-- Generator: Adobe Illustrator 16.2.1, SVG Export Plug-In . SVG Version: 6.00 Build 0)  -->
<!DOCTYPE svg PUBLIC "-//W3C//DTD SVG 1.1//EN" "http://www.w3.org/Graphics/SVG/1.1/DTD/svg11.dtd">
<svg version="1.1" id="Icons" xmlns="http://www.w3.org/2000/svg" xmlns:xlink="http://www.w3.org/1999/xlink" x="0px" y="0px"
	 width="128px" height="128px" viewBox="0 0 128 128" enable-background="new 0 0 128 128" xml:space="preserve">
<path fill="#414F59" d="M36.174,69.622c0,2.868-2.326,5.188-5.197,5.188s-5.197-2.32-5.197-5.188c0-2.866,2.326-5.188,5.197-5.188
	S36.174,66.756,36.174,69.622z M95.061,64.362c-2.871,0-5.2,2.319-5.2,5.189c0,2.868,2.329,5.188,5.2,5.188
	c2.87,0,5.195-2.32,5.195-5.188C100.256,66.682,97.931,64.362,95.061,64.362z M47.234,69.622c0,8.528-6.923,15.433-15.465,15.433
	c-8.541,0-15.465-6.904-15.465-15.433c0-8.524,6.924-15.436,15.465-15.436C40.312,54.187,47.234,61.098,47.234,69.622z
	 M42.486,69.622c0-5.909-4.797-10.696-10.717-10.696c-5.919,0-10.717,4.787-10.717,10.696c0,5.905,4.798,10.693,10.717,10.693
	C37.689,80.315,42.486,75.527,42.486,69.622z M111.317,69.552c0,8.521-6.925,15.433-15.465,15.433
	c-8.543,0-15.464-6.912-15.464-15.433c0-8.527,6.921-15.437,15.464-15.437C104.393,54.115,111.317,61.024,111.317,69.552z
	 M106.568,69.552c0-5.91-4.797-10.698-10.716-10.698c-5.918,0-10.716,4.788-10.716,10.698c0,5.905,4.798,10.693,10.716,10.693
	C101.771,80.245,106.568,75.457,106.568,69.552z M121.635,51.037c3.822,5.241,6.09,11.685,6.09,18.661
	c0,17.563-14.266,31.802-31.861,31.802c-9.973,0-18.874-4.578-24.715-11.734c-2.571,3.143-7.147,9.962-7.147,9.962
	c-0.8-1.624-4.743-7.213-7.126-9.991C51.032,96.908,42.124,101.5,32.139,101.5c-17.597,0-31.861-14.238-31.861-31.802
	c0-6.979,2.264-13.429,6.088-18.673C5.756,47.437,3.309,42.212,0,38.35h20.285c10.86-7.296,26.709-11.85,43.723-11.85
	c17.008,0,31.838,4.556,42.698,11.85H128C124.689,42.216,122.24,47.447,121.635,51.037z M57.79,69.698
	c0-14.134-11.485-25.596-25.651-25.596S6.489,55.564,6.489,69.698c0,14.14,11.483,25.601,25.649,25.601S57.79,83.838,57.79,69.698z
	 M64.001,69.691c0.003-17.224,13.735-31.239,30.868-31.762c-9.127-3.979-19.458-6.122-30.861-6.122
	c-11.383,0-22.703,2.137-31.819,6.099C49.76,37.931,63.998,52.152,64.001,69.691z M121.512,69.698
	c0-14.134-11.484-25.596-25.648-25.596c-14.168,0-25.652,11.462-25.652,25.596c0,14.14,11.484,25.601,25.652,25.601
	C110.027,95.299,121.512,83.838,121.512,69.698z"/>
</svg>
