<?xml version="1.0" encoding="utf-8"?>
<!-- Generator: Adobe Illustrator 16.2.1, SVG Export Plug-In . SVG Version: 6.00 Build 0)  -->
<!DOCTYPE svg PUBLIC "-//W3C//DTD SVG 1.1//EN" "http://www.w3.org/Graphics/SVG/1.1/DTD/svg11.dtd">
<svg version="1.1" id="Icons" xmlns="http://www.w3.org/2000/svg" xmlns:xlink="http://www.w3.org/1999/xlink" x="0px" y="0px"
	 width="128px" height="128px" viewBox="0 0 128 128" enable-background="new 0 0 128 128" xml:space="preserve">
<path fill="#414F59" d="M106,16H22c-3.3,0-6,2.7-6,6v84c0,3.3,2.7,6,6,6h84c3.3,0,6-2.7,6-6V22C112,18.7,109.3,16,106,16z
	 M71.076,88.759c-11.73,0.2-16.177-8.358-16.177-14.382V56.779H49.45v-6.957c8.169-2.944,10.135-10.313,10.596-14.513
	c0.032-0.288,0.259-0.403,0.388-0.403s7.89,0,7.89,0v13.72h10.774v8.153H68.283v16.765c0.037,2.282,0.873,5.425,5.184,5.31
	c1.428-0.037,3.344-0.453,4.346-0.93l2.59,7.681C79.43,87.033,75.035,88.69,71.076,88.759z"/>
</svg>
