<?xml version="1.0" encoding="utf-8"?>
<!-- Generator: Adobe Illustrator 16.2.1, SVG Export Plug-In . SVG Version: 6.00 Build 0)  -->
<!DOCTYPE svg PUBLIC "-//W3C//DTD SVG 1.1//EN" "http://www.w3.org/Graphics/SVG/1.1/DTD/svg11.dtd">
<svg version="1.1" id="Icons" xmlns="http://www.w3.org/2000/svg" xmlns:xlink="http://www.w3.org/1999/xlink" x="0px" y="0px"
	 width="128px" height="128px" viewBox="0 0 128 128" enable-background="new 0 0 128 128" xml:space="preserve">
<path fill="#414F59" d="M109.15,42.381c0.045,0.932,0.065,1.869,0.065,2.814c0,28.738-21.875,61.877-61.876,61.877
	c-12.287,0-23.713-3.604-33.34-9.77c1.708,0.193,3.436,0.297,5.189,0.297c10.196,0,19.565-3.473,27.004-9.303
	c-9.51-0.182-17.546-6.471-20.308-15.105c1.326,0.25,2.684,0.393,4.089,0.393c1.985,0,3.908-0.271,5.725-0.767
	c-9.937-1.999-17.442-10.788-17.442-21.324c0-0.091,0-0.181,0-0.274c2.937,1.631,6.288,2.611,9.854,2.72
	c-5.836-3.897-9.673-10.555-9.673-18.099c0-3.985,1.074-7.721,2.945-10.934c10.719,13.159,26.752,21.816,44.822,22.722
	c-0.369-1.592-0.564-3.251-0.564-4.956c0-12.012,9.738-21.744,21.752-21.744c6.25,0,11.904,2.64,15.871,6.864
	c4.949-0.975,9.607-2.782,13.812-5.275c-1.631,5.077-5.072,9.342-9.562,12.029c4.398-0.524,8.592-1.69,12.486-3.423
	C117.088,35.484,113.4,39.314,109.15,42.381z"/>
</svg>
