<?xml version="1.0" encoding="utf-8"?>
<!-- Generator: Adobe Illustrator 16.2.1, SVG Export Plug-In . SVG Version: 6.00 Build 0)  -->
<!DOCTYPE svg PUBLIC "-//W3C//DTD SVG 1.1//EN" "http://www.w3.org/Graphics/SVG/1.1/DTD/svg11.dtd">
<svg version="1.1" id="Icons" xmlns="http://www.w3.org/2000/svg" xmlns:xlink="http://www.w3.org/1999/xlink" x="0px" y="0px"
	 width="128px" height="128px" viewBox="0 0 128 128" enable-background="new 0 0 128 128" xml:space="preserve">
<path fill="#414F59" d="M106,16H22c-3.3,0-6,2.7-6,6v84c0,3.3,2.7,6,6,6h84c3.3,0,6-2.7,6-6V22C112,18.7,109.3,16,106,16z
	 M89.269,54.456c0.023,0.498,0.034,0.999,0.034,1.503C89.303,71.306,77.746,89,56.613,89C50.122,89,44.086,87.076,39,83.784
	c0.902,0.104,1.815,0.159,2.741,0.159c5.387,0,10.336-1.855,14.267-4.969c-5.024-0.097-9.27-3.454-10.729-8.066
	c0.7,0.135,1.418,0.211,2.16,0.211c1.049,0,2.064-0.146,3.024-0.41c-5.25-1.066-9.215-5.76-9.215-11.387c0-0.048,0-0.097,0-0.146
	c1.552,0.87,3.322,1.394,5.206,1.452c-3.083-2.082-5.11-5.637-5.11-9.665c0-2.128,0.567-4.123,1.556-5.839
	c5.663,7.027,14.133,11.65,23.68,12.134c-0.195-0.851-0.298-1.736-0.298-2.646C66.282,48.198,71.427,43,77.773,43
	c3.302,0,6.289,1.41,8.385,3.666c2.614-0.52,5.075-1.485,7.297-2.816c-0.861,2.711-2.68,4.988-5.052,6.424
	c2.324-0.28,4.539-0.903,6.597-1.828C93.462,50.774,91.514,52.82,89.269,54.456z"/>
</svg>
