<?xml version="1.0" encoding="utf-8"?>
<!-- Generator: Adobe Illustrator 16.2.1, SVG Export Plug-In . SVG Version: 6.00 Build 0)  -->
<!DOCTYPE svg PUBLIC "-//W3C//DTD SVG 1.1//EN" "http://www.w3.org/Graphics/SVG/1.1/DTD/svg11.dtd">
<svg version="1.1" id="Icons" xmlns="http://www.w3.org/2000/svg" xmlns:xlink="http://www.w3.org/1999/xlink" x="0px" y="0px"
	 width="128px" height="128px" viewBox="0 0 128 128" enable-background="new 0 0 128 128" xml:space="preserve">
<g>
	<path fill="#414F59" d="M64,43c7.732,0,14-6.268,14-14v-7c0-7.732-6.268-14-14-14s-14,6.268-14,14v7C50,36.732,56.268,43,64,43z"/>
	<path fill="#414F59" d="M64,50c-25.148,0-32,44-32,44c0,1.326,0.748,2.538,1.935,3.131l16.36,2.68l3.24,17.184
		C53.782,118.719,55.259,120,57,120h14c1.741,0,3.218-1.281,3.465-3.006l3.24-17.184l16.36-2.68C95.252,96.538,96,95.326,96,94
		C96,94,89.146,50,64,50z"/>
</g>
</svg>
