<?xml version="1.0" encoding="utf-8"?>
<!-- Generator: Adobe Illustrator 16.2.1, SVG Export Plug-In . SVG Version: 6.00 Build 0)  -->
<!DOCTYPE svg PUBLIC "-//W3C//DTD SVG 1.1//EN" "http://www.w3.org/Graphics/SVG/1.1/DTD/svg11.dtd">
<svg version="1.1" id="Icons" xmlns="http://www.w3.org/2000/svg" xmlns:xlink="http://www.w3.org/1999/xlink" x="0px" y="0px"
	 width="128px" height="128px" viewBox="0 0 128 128" enable-background="new 0 0 128 128" xml:space="preserve">
<path fill="#414F59" d="M78,22v7c0,7.732-6.268,14-14,14s-14-6.268-14-14v-7c0-7.732,6.268-14,14-14S78,14.268,78,22z
	 M83.975,58.025C83.647,57.697,75.814,50,64,50s-19.647,7.697-19.975,8.025C43.369,58.682,43,59.572,43,60.5v28
	c0,1.326,0.749,2.538,1.935,3.131l5.36,2.68l3.24,22.684C53.782,118.719,55.259,120,57,120h14c1.741,0,3.218-1.281,3.465-3.006
	l3.24-22.684l5.36-2.68C84.252,91.038,85,89.826,85,88.5v-28C85,59.572,84.631,58.682,83.975,58.025z M116.5,32.5v5.25
	c0,5.799-4.701,10.5-10.5,10.5s-10.5-4.701-10.5-10.5V32.5c0-5.799,4.701-10.5,10.5-10.5S116.5,26.701,116.5,32.5z M106,53.5
	c-12.99,0-14,5.357-14,7v21c0,1.171,0.584,2.263,1.559,2.912l3.873,2.582l1.586,15.854c0.179,1.789,1.685,3.151,3.482,3.151h7
	c1.798,0,3.304-1.362,3.482-3.151l1.586-15.854l3.873-2.582C119.416,83.763,120,82.671,120,81.5v-21
	C120,58.857,118.99,53.5,106,53.5z M32.5,32.5v5.25c0,5.799-4.701,10.5-10.5,10.5s-10.5-4.701-10.5-10.5V32.5
	C11.5,26.701,16.201,22,22,22S32.5,26.701,32.5,32.5z M22,53.5c-12.99,0-14,5.357-14,7v21c0,1.171,0.584,2.263,1.559,2.912
	l3.874,2.582l1.585,15.854C15.196,104.638,16.702,106,18.5,106h7c1.798,0,3.304-1.362,3.483-3.151l1.585-15.854l3.874-2.582
	C35.416,83.763,36,82.671,36,81.5v-21C36,58.857,34.99,53.5,22,53.5z"/>
</svg>
