<?xml version="1.0" encoding="utf-8"?>
<!-- Generator: Adobe Illustrator 19.0.0, SVG Export Plug-In . SVG Version: 6.00 Build 0)  -->
<svg version="1.1" id="Icons" xmlns="http://www.w3.org/2000/svg" xmlns:xlink="http://www.w3.org/1999/xlink" x="0px" y="0px"
	 viewBox="0 0 128 128" style="enable-background:new 0 0 128 128;" xml:space="preserve">
<style type="text/css">
	.st0{fill:#414F59;}
</style>
<path class="st0" d="M19,45.6V34.4C19,22,28.4,12,40,12s21,10,21,22.4v11.2C61,58,51.6,68,40,68S19,58,19,45.6z M92,76
	c9.9,0,18-8.6,18-19.2v-9.6c0-10.6-8.1-19.2-18-19.2s-18,8.6-18,19.2v9.6C74,67.4,82.1,76,92,76z M119.5,92.6c0,0,0,0-0.9-0.9
	C118.2,91.3,107.8,84,92,84c-15.8,0-26.2,7.3-26.6,7.7c-0.9,0.9-0.9,0.9-0.9,0.9c-0.3,1.3-0.5,4-0.5,5.9v14c0,1.9,1.6,3.5,3.5,3.5
	h49c1.9,0,3.5-1.6,3.5-3.5v-14C120,96.6,119.8,93.9,119.5,92.6z M9.6,88.2c-1,1-1,1-1,1C8.3,90.8,8,93.8,8,96v16c0,2.2,1.8,4,4,4
	h44.5c-0.4-1.1-0.5-2.3-0.5-3.5v-14c0-2.1,0.2-5.4,0.7-7.5c0.3-1.5,1.1-3,2.2-4.1l0.9-0.9c0.4-0.4,1.6-1.6,3.7-3.2
	C58.1,79.6,50,76,40,76C22,76,10.1,87.7,9.6,88.2z"/>
</svg>
