<?xml version="1.0" encoding="utf-8"?>
<!-- Generator: Adobe Illustrator 16.2.1, SVG Export Plug-In . SVG Version: 6.00 Build 0)  -->
<!DOCTYPE svg PUBLIC "-//W3C//DTD SVG 1.1//EN" "http://www.w3.org/Graphics/SVG/1.1/DTD/svg11.dtd">
<svg version="1.1" id="Icons" xmlns="http://www.w3.org/2000/svg" xmlns:xlink="http://www.w3.org/1999/xlink" x="0px" y="0px"
	 width="128px" height="128px" viewBox="0 0 128 128" enable-background="new 0 0 128 128" xml:space="preserve">
<g>
	<path fill="#414F59" d="M64,43c7.732,0,14-6.268,14-14v-7c0-7.732-6.268-14-14-14c-7.732,0-14,6.268-14,14v7
		C50,36.732,56.268,43,64,43z"/>
	<path fill="#414F59" d="M83.975,58.025C83.646,57.697,75.814,50,64,50c-11.814,0-19.647,7.697-19.975,8.025
		C43.369,58.682,43,59.572,43,60.5v28c0,1.326,0.748,2.538,1.935,3.131l5.36,2.68l3.24,22.685C53.782,118.719,55.259,120,57,120h14
		c1.741,0,3.218-1.281,3.465-3.006l3.24-22.684l5.359-2.681C84.252,91.038,85,89.826,85,88.5v-28
		C85,59.572,84.631,58.682,83.975,58.025z"/>
</g>
</svg>
