<?xml version="1.0" encoding="utf-8"?>
<!-- Generator: Adobe Illustrator 16.2.1, SVG Export Plug-In . SVG Version: 6.00 Build 0)  -->
<!DOCTYPE svg PUBLIC "-//W3C//DTD SVG 1.1//EN" "http://www.w3.org/Graphics/SVG/1.1/DTD/svg11.dtd">
<svg version="1.1" id="Icons" xmlns="http://www.w3.org/2000/svg" xmlns:xlink="http://www.w3.org/1999/xlink" x="0px" y="0px"
	 width="128px" height="128px" viewBox="0 0 128 128" enable-background="new 0 0 128 128" xml:space="preserve">
<g>
	<path fill="#414F59" d="M64,64c11.599,0,21-10.028,21-22.4V30.4C85,18.028,75.599,8,64,8S43,18.028,43,30.4v11.2
		C43,53.972,52.401,64,64,64z"/>
	<g>
		<path fill="#414F59" d="M92,112c2.2,0,4-1.8,4-4V92c0-2.2-0.253-5.247-0.562-6.771c0,0,0,0-1-1C93.939,83.729,82.002,72,64,72
			c-18.002,0-29.939,11.729-30.438,12.229c-1,1-1,1-1,1C32.253,86.753,32,89.8,32,92v16c0,2.2,1.8,4,4,4H92z"/>
	</g>
</g>
</svg>
