<?xml version="1.0" encoding="utf-8"?>
<!-- Generator: Adobe Illustrator 16.2.1, SVG Export Plug-In . SVG Version: 6.00 Build 0)  -->
<!DOCTYPE svg PUBLIC "-//W3C//DTD SVG 1.1//EN" "http://www.w3.org/Graphics/SVG/1.1/DTD/svg11.dtd">
<svg version="1.1" id="Icons" xmlns="http://www.w3.org/2000/svg" xmlns:xlink="http://www.w3.org/1999/xlink" x="0px" y="0px"
	 width="128px" height="128px" viewBox="0 0 128 128" enable-background="new 0 0 128 128" xml:space="preserve">
<path fill="#414F59" d="M117.666,78h-7v-4.667c0-10.309-8.357-18.667-18.666-18.667c-10.31,0-18.667,8.357-18.667,18.667V78h-6.999
	C65.05,78,64,79.05,64,80.333v37.333c0,1.284,1.05,2.334,2.334,2.334h51.332c1.284,0,2.334-1.05,2.334-2.334V80.333
	C120,79.05,118.95,78,117.666,78z M94.334,102.012v6.321c0,1.284-1.051,2.333-2.334,2.333s-2.334-1.049-2.334-2.333v-6.321
	c-2.059-0.901-3.5-2.954-3.5-5.346c0-3.221,2.612-5.833,5.834-5.833s5.834,2.612,5.834,5.833
	C97.834,99.058,96.393,101.11,94.334,102.012z M102.5,78h-21v-4.667c0-5.79,4.71-10.5,10.5-10.5c5.789,0,10.5,4.71,10.5,10.5V78z"/>
<path fill="#414F59" d="M40,64c11.599,0,21-10.028,21-22.4V30.4C61,18.028,51.599,8,40,8S19,18.028,19,30.4V41.6
	C19,53.972,28.401,64,40,64z"/>
<g>
	<path fill="#414F59" d="M56,79.148c0-2.2-1.715-4.546-3.812-5.213c0,0-6.087-1.936-12.188-1.936
		C21.998,72,10.061,83.729,9.562,84.229c-1,1-1,1-1,1C8.253,86.753,8,89.8,8,92v16c0,2.2,1.8,4,4,4h40c2.2,0,4-1.8,4-4V79.148z"/>
</g>
</svg>
