<?xml version="1.0" encoding="utf-8"?>
<!-- Generator: Adobe Illustrator 16.2.1, SVG Export Plug-In . SVG Version: 6.00 Build 0)  -->
<!DOCTYPE svg PUBLIC "-//W3C//DTD SVG 1.1//EN" "http://www.w3.org/Graphics/SVG/1.1/DTD/svg11.dtd">
<svg version="1.1" id="Icons" xmlns="http://www.w3.org/2000/svg" xmlns:xlink="http://www.w3.org/1999/xlink" x="0px" y="0px"
	 width="128px" height="128px" viewBox="0 0 128 128" enable-background="new 0 0 128 128" xml:space="preserve">
<path fill="#414F59" d="M119.442,38.522c-6.262,35.348-41.222,65.29-51.741,72.13c-10.521,6.842-20.12-2.741-23.592-9.98
	c-3.993-8.266-15.929-53.025-19.052-56.734c-3.125-3.701-12.51,3.709-12.51,3.709L8,41.67c0,0,19.046-22.812,33.538-25.672
	c15.375-3.022,15.354,23.67,19.053,38.482c3.575,14.335,5.981,22.529,9.099,22.529c3.131,0,9.1-7.988,15.636-20.24
	c6.54-12.262-0.281-23.1-13.079-15.395C77.359,10.583,125.699,3.18,119.442,38.522z"/>
</svg>
