<?xml version="1.0" encoding="utf-8"?>
<!-- Generator: Adobe Illustrator 16.2.1, SVG Export Plug-In . SVG Version: 6.00 Build 0)  -->
<!DOCTYPE svg PUBLIC "-//W3C//DTD SVG 1.1//EN" "http://www.w3.org/Graphics/SVG/1.1/DTD/svg11.dtd">
<svg version="1.1" id="Icons" xmlns="http://www.w3.org/2000/svg" xmlns:xlink="http://www.w3.org/1999/xlink" x="0px" y="0px"
	 width="128px" height="128px" viewBox="0 0 128 128" enable-background="new 0 0 128 128" xml:space="preserve">
<path fill="#414F59" d="M106,16H22c-3.3,0-6,2.7-6,6v84c0,3.3,2.7,6,6,6h84c3.3,0,6-2.7,6-6V22C112,18.7,109.3,16,106,16z
	 M91.72,51.297c-3.131,17.625-20.61,32.555-25.87,35.966c-5.261,3.411-10.06-1.367-11.796-4.977
	c-1.996-4.122-7.964-26.439-9.525-28.289c-1.562-1.846-6.255,1.85-6.255,1.85L36,52.866c0,0,9.522-11.375,16.769-12.801
	c7.688-1.507,7.677,11.803,9.526,19.188c1.787,7.147,2.99,11.233,4.549,11.233c1.565,0,4.55-3.983,7.817-10.092
	c3.271-6.114-0.141-11.519-6.539-7.677C70.679,37.365,94.848,33.674,91.72,51.297z"/>
</svg>
