<?xml version="1.0" encoding="utf-8"?>
<!-- Generator: Adobe Illustrator 16.2.1, SVG Export Plug-In . SVG Version: 6.00 Build 0)  -->
<!DOCTYPE svg PUBLIC "-//W3C//DTD SVG 1.1//EN" "http://www.w3.org/Graphics/SVG/1.1/DTD/svg11.dtd">
<svg version="1.1" id="Icons" xmlns="http://www.w3.org/2000/svg" xmlns:xlink="http://www.w3.org/1999/xlink" x="0px" y="0px"
	 width="128px" height="128px" viewBox="0 0 128 128" enable-background="new 0 0 128 128" xml:space="preserve">
<path fill="#414F59" d="M126.906,107.969l-56-96C69.477,9.516,66.844,8,64,8s-5.477,1.516-6.906,3.969l-56,96
	c-0.727,1.234-1.094,2.617-1.094,4c0,1.391,0.352,2.773,1.062,4.016C2.492,118.469,5.133,120,8,120h112
	c2.859,0,5.508-1.531,6.938-4.016C127.648,114.75,128,113.375,128,112C128,110.609,127.641,109.211,126.906,107.969z M64,104
	c-4.418,0-8-3.582-8-8s3.582-8,8-8s8,3.582,8,8S68.418,104,64,104z M70,80H58l-2-32h16L70,80z"/>
</svg>
