<?xml version="1.0" encoding="utf-8"?>
<!-- Generator: Adobe Illustrator 16.2.1, SVG Export Plug-In . SVG Version: 6.00 Build 0)  -->
<!DOCTYPE svg PUBLIC "-//W3C//DTD SVG 1.1//EN" "http://www.w3.org/Graphics/SVG/1.1/DTD/svg11.dtd">
<svg version="1.1" id="Icons" xmlns="http://www.w3.org/2000/svg" xmlns:xlink="http://www.w3.org/1999/xlink" x="0px" y="0px"
	 width="128px" height="128px" viewBox="0 0 128 128" enable-background="new 0 0 128 128" xml:space="preserve">
<g>
	<path fill="#414F59" d="M44.521,92.201L64,112l19.479-19.799C78.494,87.134,71.607,84,64,84S49.506,87.134,44.521,92.201z"/>
	<path fill="#414F59" d="M64,20C39.006,20,16.379,30.298,0,46.946l11.156,11.339C24.695,44.523,43.387,36,64,36
		s39.307,8.523,52.846,22.285L128,46.946C111.623,30.298,88.996,20,64,20z"/>
	<path fill="#414F59" d="M22.262,69.573l11.145,11.329C41.244,72.935,52.066,68,64,68s22.756,4.935,30.594,12.902l11.146-11.329
		C95.057,58.716,80.301,52,64,52S32.943,58.716,22.262,69.573z"/>
</g>
</svg>
