<?xml version="1.0" encoding="utf-8"?>
<!-- Generator: Adobe Illustrator 16.2.1, SVG Export Plug-In . SVG Version: 6.00 Build 0)  -->
<!DOCTYPE svg PUBLIC "-//W3C//DTD SVG 1.1//EN" "http://www.w3.org/Graphics/SVG/1.1/DTD/svg11.dtd">
<svg version="1.1" id="Icons" xmlns="http://www.w3.org/2000/svg" xmlns:xlink="http://www.w3.org/1999/xlink" x="0px" y="0px"
	 width="128px" height="128px" viewBox="0 0 128 128" enable-background="new 0 0 128 128" xml:space="preserve">
<path fill="#414F59" d="M23.222,19.11c1.385-1.805,4.053-2.518,4.053-2.518l27.25-8.198c1.164-0.14,2.371-1.179,6.434,0.815
	c2.59,1.263,3.174,5.934,3.174,5.934l0.262,37.83c0,0-0.615,4.543-4.477,5.315c-3.562,0.711-6.356-1.627-6.356-1.627L25.241,25.402
	C25.241,25.402,21.24,21.665,23.222,19.11z M8.802,83.718c-1.055-1.504-0.766-4.793-0.766-4.793l1.906-19.01
	c0.136-1.237,1.57-2.636,3.182-3.408c2.104-1.008,6.443,0.441,6.443,0.441l29.291,11.979c0,0,4.421,1.75,4.331,4.669
	c-0.134,3.859-2.465,3.929-3.792,4.652l-34.187,6.112C15.211,84.361,10.298,85.843,8.802,83.718z M61.522,119.771
	c-2.112,0.498-4.896,0.027-4.896,0.027l-22.99-5.879c-1.605-0.629-2.736-1.518-3.421-3.309c-0.727-1.92,2.126-5.045,2.126-5.045
	l22.897-20.399c0,0,3.513-2.528,6.452-1.312c2.685,1.13,2.804,3.788,2.804,3.788l-0.524,27.631
	C63.97,115.273,64.521,119.074,61.522,119.771z M75.503,63.019l18.551-23.625c0,0,1.91-3.046,5.023-2.834
	c2.82,0.191,4.181,2.082,4.181,2.082l15.678,14.957c0,0,1.366,2.372,0.743,4.334c-0.643,1.965-5.118,3.438-5.118,3.438
	l-32.815,7.765c0,0-4.645,0.674-6.327-1.637C73.865,65.373,75.503,63.019,75.503,63.019z M118.573,93.986l-13.896,16.078
	c0,0-2.482,1.674-4.992,1.674c-2.499,0-5.388-3.137-5.388-3.137L76.729,84.848c0,0-1.977-3.467,0.355-5.368
	c2.149-1.763,5.368-1.066,5.368-1.066l32.896,8.551c0,0,4.7,0.691,4.649,3.222C119.965,91.963,118.573,93.986,118.573,93.986z"/>
</svg>
