<?xml version="1.0" encoding="utf-8"?>
<!-- Generator: Adobe Illustrator 16.2.1, SVG Export Plug-In . SVG Version: 6.00 Build 0)  -->
<!DOCTYPE svg PUBLIC "-//W3C//DTD SVG 1.1//EN" "http://www.w3.org/Graphics/SVG/1.1/DTD/svg11.dtd">
<svg version="1.1" id="Icons" xmlns="http://www.w3.org/2000/svg" xmlns:xlink="http://www.w3.org/1999/xlink" x="0px" y="0px"
	 width="128px" height="128px" viewBox="0 0 128 128" enable-background="new 0 0 128 128" xml:space="preserve">
<path fill="#414F59" d="M106,16H22c-3.3,0-6,2.7-6,6v84c0,3.3,2.7,6,6,6h84c3.3,0,6-2.7,6-6V22C112,18.7,109.3,16,106,16z
	 M44.34,39.472c0.668-1.032,1.954-1.439,1.954-1.439l13.136-4.686c0.563-0.077,1.145-0.671,3.104,0.466
	c1.25,0.723,1.53,3.391,1.53,3.391l0.126,21.619c0,0-0.296,2.594-2.157,3.035c-1.719,0.408-3.065-0.929-3.065-0.929L45.312,43.066
	C45.312,43.066,43.384,40.931,44.34,39.472z M37.387,76.392c-0.508-0.861-0.369-2.74-0.369-2.74l0.919-10.863
	c0.066-0.706,0.758-1.506,1.534-1.947c1.015-0.577,3.106,0.252,3.106,0.252l14.122,6.846c0,0,2.134,1,2.088,2.669
	c-0.063,2.204-1.188,2.243-1.827,2.658l-16.483,3.491C40.477,76.757,38.108,77.605,37.387,76.392z M62.805,96.992
	c-1.017,0.284-2.36,0.016-2.36,0.016l-11.085-3.359c-0.772-0.357-1.318-0.867-1.649-1.891c-0.349-1.097,1.026-2.883,1.026-2.883
	l11.041-11.656c0,0,1.692-1.445,3.109-0.751c1.295,0.646,1.352,2.164,1.352,2.164l-0.253,15.79
	C63.985,94.422,64.252,96.594,62.805,96.992z M69.547,64.562l8.943-13.5c0,0,0.92-1.74,2.422-1.62
	c1.36,0.109,2.017,1.189,2.017,1.189l7.558,8.548c0,0,0.66,1.356,0.359,2.477c-0.309,1.123-2.467,1.965-2.467,1.965l-15.822,4.438
	c0,0-2.24,0.385-3.05-0.936C68.757,65.907,69.547,64.562,69.547,64.562z M90.313,82.258l-6.701,9.188c0,0-1.196,0.956-2.407,0.956
	c-1.204,0-2.597-1.791-2.597-1.791l-8.47-13.575c0,0-0.953-1.98,0.17-3.066c1.037-1.008,2.59-0.609,2.59-0.609l15.859,4.887
	c0,0,2.267,0.393,2.242,1.841C90.984,81.102,90.313,82.258,90.313,82.258z"/>
</svg>
