<?xml version="1.0" encoding="utf-8"?>
<!-- Generator: Adobe Illustrator 16.2.1, SVG Export Plug-In . SVG Version: 6.00 Build 0)  -->
<!DOCTYPE svg PUBLIC "-//W3C//DTD SVG 1.1//EN" "http://www.w3.org/Graphics/SVG/1.1/DTD/svg11.dtd">
<svg version="1.1" id="Icons" xmlns="http://www.w3.org/2000/svg" xmlns:xlink="http://www.w3.org/1999/xlink" x="0px" y="0px"
	 width="128px" height="128px" viewBox="0 0 128 128" enable-background="new 0 0 128 128" xml:space="preserve">
<g>
	<path fill="#414F59" d="M60.195,82.115c-0.267,0.308-0.557,0.561-0.878,0.762c-0.318,0.199-0.585,0.295-0.79,0.295
		c-0.263,0-0.458-0.068-0.581-0.227c-0.112-0.146-0.174-0.389-0.174-0.725V71.349h-2.834v11.851c0,0.848,0.168,1.473,0.496,1.896
		c0.335,0.428,0.823,0.636,1.483,0.636c0.529,0,1.08-0.147,1.644-0.454c0.567-0.298,1.111-0.735,1.634-1.31v1.556h2.834V71.349
		h-2.834V82.115z"/>
	<path fill="#414F59" d="M106,16H22c-3.3,0-6,2.7-6,6v84c0,3.3,2.7,6,6,6h84c3.3,0,6-2.7,6-6V22C112,18.7,109.3,16,106,16z
		 M70.754,42.166h3.186v11.97c0,0.369,0.075,0.636,0.205,0.8c0.13,0.168,0.352,0.25,0.649,0.25c0.232,0,0.533-0.109,0.892-0.328
		c0.355-0.223,0.684-0.5,0.981-0.838V42.166h3.192v15.613h-3.192V56.05c-0.585,0.636-1.196,1.124-1.836,1.456
		c-0.636,0.328-1.251,0.502-1.849,0.502c-0.742,0-1.292-0.238-1.668-0.707c-0.373-0.458-0.561-1.155-0.561-2.085V42.166z
		 M58.91,45.734c0-1.213,0.431-2.174,1.285-2.889c0.858-0.717,2.017-1.072,3.466-1.072c1.319,0,2.399,0.375,3.247,1.131
		c0.838,0.752,1.258,1.732,1.258,2.919v8.066c0,1.337-0.41,2.379-1.233,3.145c-0.831,0.759-1.969,1.138-3.418,1.138
		c-1.395,0-2.513-0.393-3.35-1.179c-0.834-0.786-1.255-1.839-1.255-3.165V45.734z M50.222,36.611l2.331,8.463h0.226l2.226-8.463
		h3.646l-4.18,12.387v8.781h-3.589v-8.388l-4.276-12.78H50.222z M92,81.158c0,5.646-4.584,10.23-10.23,10.23H46.227
		c-5.65,0-10.227-4.584-10.227-10.23v-8.224c0-5.649,4.576-10.233,10.227-10.233H81.77c5.646,0,10.23,4.584,10.23,10.233V81.158z"/>
	<polygon fill="#414F59" points="43.896,69.104 47.197,69.104 47.197,85.523 50.39,85.523 50.39,69.104 53.694,69.104 
		53.694,66.311 43.896,66.311 	"/>
	<path fill="#414F59" d="M70.545,71.178c-0.44,0-0.875,0.109-1.309,0.335c-0.424,0.226-0.831,0.558-1.214,0.984v-6.187h-2.864
		v19.213h2.864v-1.088c0.369,0.438,0.779,0.756,1.214,0.961c0.431,0.209,0.923,0.308,1.479,0.308c0.838,0,1.483-0.263,1.925-0.8
		c0.447-0.54,0.666-1.309,0.666-2.307v-7.869c0-1.158-0.232-2.043-0.707-2.648C72.128,71.475,71.444,71.178,70.545,71.178z
		 M70.388,82.204c0,0.454-0.082,0.776-0.242,0.978c-0.164,0.201-0.417,0.305-0.766,0.305c-0.239,0-0.465-0.055-0.684-0.154
		s-0.444-0.277-0.674-0.502v-8.832c0.195-0.195,0.387-0.342,0.585-0.435s0.399-0.137,0.602-0.137c0.379,0,0.677,0.123,0.882,0.369
		c0.201,0.246,0.297,0.608,0.297,1.091V82.204z"/>
	<path fill="#414F59" d="M63.504,55.469c0.435,0,0.776-0.119,1.029-0.359c0.256-0.238,0.386-0.57,0.386-0.987v-8.504
		c0-0.342-0.13-0.615-0.39-0.831c-0.26-0.208-0.602-0.311-1.025-0.311c-0.386,0-0.704,0.103-0.95,0.311
		c-0.239,0.216-0.362,0.489-0.362,0.831v8.504c0,0.431,0.116,0.759,0.342,0.991C62.759,55.355,63.084,55.469,63.504,55.469z"/>
	<path fill="#414F59" d="M79.097,70.996c-1.268,0-2.297,0.387-3.1,1.159c-0.804,0.772-1.203,1.78-1.203,3.005v6.367
		c0,1.367,0.369,2.44,1.094,3.213c0.728,0.783,1.729,1.169,2.997,1.169c1.412,0,2.475-0.366,3.179-1.094
		c0.718-0.738,1.07-1.835,1.07-3.288v-0.729h-2.916v0.646c0,0.834-0.099,1.371-0.28,1.617c-0.188,0.246-0.516,0.369-0.987,0.369
		c-0.451,0-0.772-0.145-0.961-0.432c-0.185-0.29-0.276-0.81-0.276-1.555v-2.67h5.421V75.16c0-1.344-0.349-2.373-1.046-3.09
		C81.394,71.355,80.396,70.996,79.097,70.996z M80.218,76.571h-2.505v-1.433c0-0.594,0.096-1.021,0.294-1.271
		c0.198-0.263,0.52-0.393,0.971-0.393c0.431,0,0.752,0.13,0.943,0.393c0.194,0.25,0.297,0.678,0.297,1.271V76.571z"/>
</g>
</svg>
