<?xml version="1.0" encoding="utf-8"?>
<!-- Generator: Adobe Illustrator 16.2.1, SVG Export Plug-In . SVG Version: 6.00 Build 0)  -->
<!DOCTYPE svg PUBLIC "-//W3C//DTD SVG 1.1//EN" "http://www.w3.org/Graphics/SVG/1.1/DTD/svg11.dtd">
<svg version="1.1" id="Icons" xmlns="http://www.w3.org/2000/svg" xmlns:xlink="http://www.w3.org/1999/xlink" x="0px" y="0px"
	 width="128px" height="128px" viewBox="0 0 128 128" enable-background="new 0 0 128 128" xml:space="preserve">
<g>
	<path fill="#414F59" d="M74.418,82.936c-0.404,0-0.807,0.088-1.203,0.274s-0.779,0.481-1.17,0.873v17.741
		c0.459,0.452,0.91,0.809,1.348,1.01c0.438,0.199,0.889,0.309,1.367,0.309c0.696,0,1.203-0.207,1.531-0.611
		c0.32-0.404,0.484-1.052,0.484-1.963v-14.7c0-0.968-0.191-1.697-0.594-2.19C75.771,83.183,75.176,82.936,74.418,82.936z"/>
	<path fill="#414F59" d="M63.029,52.293c2.898,0,5.174-0.763,6.836-2.287c1.646-1.538,2.467-3.632,2.467-6.316V27.486
		c0-2.383-0.84-4.354-2.516-5.864c-1.695-1.518-3.855-2.272-6.494-2.272c-2.898,0-5.215,0.714-6.932,2.156
		c-1.709,1.435-2.57,3.364-2.57,5.802v16.259c0,2.664,0.842,4.778,2.51,6.357C58.004,51.504,60.24,52.293,63.029,52.293z
		 M60.383,27.074c0-0.687,0.246-1.236,0.725-1.668c0.492-0.419,1.129-0.626,1.9-0.626c0.848,0,1.531,0.207,2.051,0.626
		c0.52,0.432,0.779,0.981,0.779,1.668v17.082c0,0.838-0.26,1.504-0.771,1.984c-0.506,0.48-1.189,0.721-2.059,0.721
		c-0.84,0-1.49-0.227-1.941-0.714c-0.451-0.466-0.684-1.126-0.684-1.991V27.074z"/>
	<path fill="#414F59" d="M81.965,51.963c1.195,0,2.426-0.35,3.697-1.009c1.279-0.666,2.502-1.647,3.672-2.925v3.475h6.385V20.14
		h-6.385V43.95c-0.596,0.68-1.252,1.235-1.963,1.683c-0.717,0.439-1.318,0.659-1.783,0.659c-0.596,0-1.039-0.165-1.299-0.501
		c-0.26-0.33-0.41-0.865-0.41-1.607V20.14h-6.371v26.214c0,1.867,0.375,3.269,1.121,4.188C79.381,51.482,80.48,51.963,81.965,51.963
		z"/>
	<path fill="#414F59" d="M99.539,61.39H28.453C17.152,61.39,8,70.598,8,81.947v16.52c0,11.342,9.152,20.551,20.453,20.551h71.086
		c11.293,0,20.461-9.209,20.461-20.551v-16.52C120,70.598,110.832,61.39,99.539,61.39z M43.389,74.25h-6.609v32.985h-6.385V74.25
		h-6.604v-5.609h19.598V74.25z M62.059,107.235h-5.668v-3.126c-1.045,1.154-2.133,2.033-3.268,2.631
		c-1.127,0.616-2.229,0.913-3.287,0.913c-1.32,0-2.297-0.418-2.967-1.278c-0.656-0.851-0.992-2.105-0.992-3.809V78.762h5.668v21.839
		c0,0.675,0.123,1.161,0.348,1.456c0.246,0.318,0.637,0.455,1.162,0.455c0.41,0,0.943-0.192,1.58-0.594
		c0.643-0.402,1.223-0.91,1.756-1.529V78.762h5.668V107.235z M82.613,101.358c0,2.004-0.438,3.549-1.332,4.633
		c-0.883,1.079-2.174,1.606-3.85,1.606c-1.113,0-2.098-0.197-2.959-0.617c-0.869-0.412-1.689-1.051-2.428-1.93v2.185h-5.729V68.641
		h5.729v12.428c0.766-0.857,1.58-1.524,2.428-1.978c0.867-0.453,1.736-0.673,2.617-0.673c1.799,0,3.166,0.597,4.109,1.812
		c0.949,1.217,1.414,2.994,1.414,5.32V101.358z M102.268,93.68H91.426v5.364c0,1.496,0.184,2.54,0.553,3.122
		c0.377,0.576,1.02,0.867,1.922,0.867c0.943,0,1.6-0.247,1.975-0.74c0.363-0.496,0.561-1.574,0.561-3.249v-1.3h5.832v1.464
		c0,2.919-0.705,5.122-2.141,6.605c-1.408,1.461-3.533,2.196-6.357,2.196c-2.535,0-4.539-0.774-5.994-2.349
		c-1.449-1.552-2.188-3.706-2.188-6.453v-12.79c0-2.461,0.799-4.484,2.406-6.037c1.605-1.551,3.664-2.328,6.199-2.328
		c2.598,0,4.594,0.723,5.982,2.158c1.395,1.439,2.092,3.508,2.092,6.207V93.68z"/>
	<polygon fill="#414F59" points="37.764,51.504 44.941,51.504 44.941,33.864 53.301,8.982 46.008,8.982 41.557,25.982 
		41.105,25.982 36.443,8.982 29.211,8.982 37.764,34.654 	"/>
	<path fill="#414F59" d="M93.955,83.031c-0.902,0-1.545,0.262-1.941,0.789c-0.396,0.502-0.588,1.361-0.588,2.555v2.878h5.01v-2.878
		c0-1.193-0.205-2.053-0.594-2.555C95.459,83.293,94.816,83.031,93.955,83.031z"/>
</g>
</svg>
